<svg xmlns="http://www.w3.org/2000/svg" width="444" height="118" viewBox="0 0 444 118"><defs><style>.a{opacity:0.8;}.b,.d{fill:#2c3e50;}.c{fill:#fff;}.d{font-size:48px;font-family:Nunito-Bold, Nunito;font-weight:700;letter-spacing:-0.013em;}</style></defs><g transform="translate(-160 -100)"><g class="a" transform="translate(42 26)"><g transform="translate(814.309 520.975)"><rect class="b" width="120" height="118" rx="30" transform="translate(-696.309 -446.975)"/><g transform="translate(-665.752 -427.184)"><path class="c" d="M6727,1744.784l8.081-11.784h14.43l-7.917,11.784Z" transform="translate(-6703.071 -1733)"/><path class="c" d="M3098.26,4454.414l-.334-.3,15.7-.125-.052-13h14.1l-.079,13.013,12.53-.079-4.969,8.152-7.62-.026v8.981l-13.761,23.022v-31.924l-30.874-.079-.9-5.895L3101.786,4427h14.725Z" transform="translate(-3082 -4409.314)"/></g></g><text class="d" transform="translate(254 123)"><tspan x="0" y="0">кабинет</tspan><tspan x="0" y="50">организатора</tspan></text></g></g></svg>