<?xml version="1.0" encoding="UTF-8"?>
<!DOCTYPE svg PUBLIC "-//W3C//DTD SVG 1.1//EN" "http://www.w3.org/Graphics/SVG/1.1/DTD/svg11.dtd">
<!-- Creator: CorelDRAW X6 -->
<svg xmlns="http://www.w3.org/2000/svg" xml:space="preserve" width="150px" height="35px" version="1.1" style="shape-rendering:geometricPrecision; text-rendering:geometricPrecision; image-rendering:optimizeQuality; fill-rule:evenodd; clip-rule:evenodd"
viewBox="0 0 739249 172396"
 xmlns:xlink="http://www.w3.org/1999/xlink">
 <defs>
  <style type="text/css">
   <![CDATA[
    .str0 {stroke:black;stroke-width:553.511}
    .fil2 {fill:none;fill-rule:nonzero}
    .fil0 {fill:#00B8E3;fill-rule:nonzero}
    .fil1 {fill:#383838;fill-rule:nonzero}
   ]]>
  </style>
 </defs>
 <g id="Слой_x0020_1">
  <metadata id="CorelCorpID_0Corel-Layer"/>
  <g id="_244162736">
   <polygon class="fil0" points="325229,23970 341664,0 371026,0 354910,23970 "/>
   <polygon class="fil0" points="309628,91757 308939,92508 340886,92261 340777,64446 370839,64446 370673,92283 394798,92123 384676,107332 370550,107281 370552,125560 341181,172396 341183,107448 278374,107279 276545,95295 316803,35983 346748,35983 "/>
  </g>
  <polygon class="fil1" points="277,112134 277,46977 8259,46977 8259,112134 "/>
  <path id="1" class="fil1" d="M78469 79257c0,3808 -466,7383 -1414,10726 -931,3343 -2362,6353 -4257,9031 -1896,2677 -4274,4989 -7118,6934 -2827,1946 -6153,3459 -9944,4524 -2178,615 -4540,1047 -7068,1297 -2528,250 -5272,366 -8232,366l-14751 0 0 -65157 14900 0c2960,0 5704,117 8232,366 2528,249 4889,665 7051,1297 3808,1064 7117,2561 9961,4473 2844,1913 5205,4175 7068,6785 1862,2627 3260,5555 4191,8814 915,3276 1380,6785 1380,10544zm-7883 0c0,-6254 -1380,-11325 -4141,-15216 -2760,-3892 -6718,-6652 -11874,-8266 -1979,-632 -4174,-1047 -6602,-1281 -2444,-216 -5189,-332 -8231,-332l-6070 0 0 50788 6070 0c3043,0 5787,-116 8231,-333 2428,-233 4623,-665 6602,-1281 5155,-1613 9113,-4457 11874,-8498 2761,-4058 4141,-9246 4141,-15582z"/>
  <polygon id="2" class="fil1" points="101515,104950 134942,104950 134942,112134 93533,112134 93533,46977 133130,46977 133130,54162 101515,54162 101515,75215 129637,75215 129637,82400 101515,82400 "/>
  <path id="3" class="fil1" d="M142906 112134l26492 -65157 6885 0 26592 65157 -8631 0 -7650 -19557 -27472 0 -7684 19557 -8531 0zm29884 -55079c-2927,8115 -5720,15499 -8364,22135l-2511 6203 21802 0 -2511 -6219c-2677,-6752 -5405,-14119 -8215,-22118l-200 0z"/>
  <path id="4" class="fil1" d="M220117 64156c0,1913 382,3492 1164,4740 782,1264 1813,2295 3126,3110 1314,798 2827,1480 4557,1995 1730,516 3543,998 5405,1464 2528,615 5006,1297 7450,2046 2445,748 4607,1779 6519,3093 1912,1314 3459,3027 4639,5138 1181,2112 1763,4823 1763,8149 0,3376 -632,6286 -1913,8748 -1281,2444 -3060,4456 -5322,6036 -2262,1580 -4923,2744 -8016,3509 -3093,765 -6469,1147 -10127,1147 -1697,0 -3426,-100 -5189,-316 -1780,-216 -3459,-498 -5072,-848 -1613,-349 -3060,-765 -4357,-1214 -1297,-450 -2328,-915 -3077,-1364l0 -7234c1164,583 2478,1098 3941,1580 1464,482 2977,899 4540,1231 1563,333 3126,599 4723,798 1597,183 3093,283 4491,283 2261,0 4440,-200 6502,-583 2062,-399 3875,-1047 5422,-1945 1563,-915 2794,-2162 3708,-3726 915,-1580 1363,-3542 1363,-5920 0,-1945 -399,-3559 -1197,-4823 -782,-1264 -1846,-2311 -3177,-3143 -1330,-832 -2861,-1497 -4590,-2029 -1746,-516 -3559,-998 -5471,-1447 -2545,-599 -5006,-1247 -7416,-1979 -2428,-732 -4573,-1746 -6469,-3044 -1896,-1297 -3426,-2977 -4573,-5022 -1148,-2046 -1730,-4673 -1730,-7849 0,-3309 599,-6170 1812,-8547 1215,-2395 2861,-4374 4923,-5938 2079,-1546 4457,-2710 7151,-3459 2694,-748 5571,-1114 8631,-1114 3476,0 6702,332 9713,997 3009,665 5754,1546 8265,2611l0 7367c-2694,-1131 -5488,-2062 -8365,-2778 -2877,-715 -5954,-1081 -9230,-1114 -2461,0 -4607,267 -6436,798 -1812,532 -3326,1297 -4523,2295 -1198,981 -2096,2178 -2677,3592 -582,1414 -881,2977 -881,4706z"/>
  <polygon id="5" class="fil1" points="430081,112134 422099,112134 422099,54162 400313,54162 400313,46977 451866,46977 451866,54162 430081,54162 "/>
  <path id="6" class="fil1" d="M470905 85193l0 26940 -7982 0 0 -65157 16913 0c2861,0 5289,100 7284,316 1995,216 3825,549 5471,998 4557,1231 8032,3343 10427,6320 2411,2960 3609,6685 3609,11125 0,2644 -416,4989 -1264,7068 -848,2078 -2029,3891 -3559,5421 -1530,1530 -3359,2777 -5488,3742 -2128,981 -4490,1696 -7084,2146l0 199 19291 27822 -7983 0 -20056 -26940 -9579 0zm0 -31031l0 23847 7849 0c2428,0 4507,-84 6237,-250 1713,-150 3259,-449 4623,-864 2760,-848 4889,-2195 6386,-4042 1497,-1846 2245,-4273 2245,-7250 -33,-2794 -748,-5039 -2145,-6752 -1397,-1697 -3326,-2927 -5804,-3676 -1164,-349 -2561,-615 -4191,-765 -1613,-166 -3675,-249 -6186,-249l-9014 0z"/>
  <path id="7" class="fil1" d="M516336 112134l26492 -65157 6885 0 26592 65157 -8631 0 -7650 -19557 -27472 0 -7684 19557 -8531 0zm29884 -55079c-2927,8115 -5720,15499 -8364,22135l-2511 6203 21802 0 -2511 -6219c-2677,-6752 -5405,-14119 -8215,-22118l-200 0z"/>
  <path id="8" class="fil1" d="M603824 102007c2362,-7118 4889,-14285 7600,-21519l12490 -33510 7982 0 -24729 65157 -6918 0 -24729 -65157 7982 0 12490 33510c2744,7234 5288,14401 7650,21519l183 0z"/>
  <polygon id="9" class="fil1" points="651251,104950 684677,104950 684677,112134 643268,112134 643268,46977 682865,46977 682865,54162 651251,54162 651251,75215 679372,75215 679372,82400 651251,82400 "/>
  <polygon id="10" class="fil1" points="707159,46977 707159,104950 738973,104950 738973,112134 699177,112134 699177,46977 "/>
  <polygon id="11" class="fil2 str0" points="277,112134 277,46977 8259,46977 8259,112134 "/>
  <path id="12" class="fil2 str0" d="M78469 79257c0,3808 -466,7383 -1414,10726 -931,3343 -2362,6353 -4257,9031 -1896,2677 -4274,4989 -7118,6934 -2827,1946 -6153,3459 -9944,4524 -2178,615 -4540,1047 -7068,1297 -2528,250 -5272,366 -8232,366l-14751 0 0 -65157 14900 0c2960,0 5704,117 8232,366 2528,249 4889,665 7051,1297 3808,1064 7117,2561 9961,4473 2844,1913 5205,4175 7068,6785 1862,2627 3260,5555 4191,8814 915,3276 1380,6785 1380,10544zm-7883 0c0,-6254 -1380,-11325 -4141,-15216 -2760,-3892 -6718,-6652 -11874,-8266 -1979,-632 -4174,-1047 -6602,-1281 -2444,-216 -5189,-332 -8231,-332l-6070 0 0 50788 6070 0c3043,0 5787,-116 8231,-333 2428,-233 4623,-665 6602,-1281 5155,-1613 9113,-4457 11874,-8498 2761,-4058 4141,-9246 4141,-15582z"/>
  <polygon id="13" class="fil2 str0" points="101515,104950 134942,104950 134942,112134 93533,112134 93533,46977 133130,46977 133130,54162 101515,54162 101515,75215 129637,75215 129637,82400 101515,82400 "/>
  <path id="14" class="fil2 str0" d="M142906 112134l26492 -65157 6885 0 26592 65157 -8631 0 -7650 -19557 -27472 0 -7684 19557 -8531 0zm29884 -55079c-2927,8115 -5720,15499 -8364,22135l-2511 6203 21802 0 -2511 -6219c-2677,-6752 -5405,-14119 -8215,-22118l-200 0z"/>
  <path id="15" class="fil2 str0" d="M220117 64156c0,1913 382,3492 1164,4740 782,1264 1813,2295 3126,3110 1314,798 2827,1480 4557,1995 1730,516 3543,998 5405,1464 2528,615 5006,1297 7450,2046 2445,748 4607,1779 6519,3093 1912,1314 3459,3027 4639,5138 1181,2112 1763,4823 1763,8149 0,3376 -632,6286 -1913,8748 -1281,2444 -3060,4456 -5322,6036 -2262,1580 -4923,2744 -8016,3509 -3093,765 -6469,1147 -10127,1147 -1697,0 -3426,-100 -5189,-316 -1780,-216 -3459,-498 -5072,-848 -1613,-349 -3060,-765 -4357,-1214 -1297,-450 -2328,-915 -3077,-1364l0 -7234c1164,583 2478,1098 3941,1580 1464,482 2977,899 4540,1231 1563,333 3126,599 4723,798 1597,183 3093,283 4491,283 2261,0 4440,-200 6502,-583 2062,-399 3875,-1047 5422,-1945 1563,-915 2794,-2162 3708,-3726 915,-1580 1363,-3542 1363,-5920 0,-1945 -399,-3559 -1197,-4823 -782,-1264 -1846,-2311 -3177,-3143 -1330,-832 -2861,-1497 -4590,-2029 -1746,-516 -3559,-998 -5471,-1447 -2545,-599 -5006,-1247 -7416,-1979 -2428,-732 -4573,-1746 -6469,-3044 -1896,-1297 -3426,-2977 -4573,-5022 -1148,-2046 -1730,-4673 -1730,-7849 0,-3309 599,-6170 1812,-8547 1215,-2395 2861,-4374 4923,-5938 2079,-1546 4457,-2710 7151,-3459 2694,-748 5571,-1114 8631,-1114 3476,0 6702,332 9713,997 3009,665 5754,1546 8265,2611l0 7367c-2694,-1131 -5488,-2062 -8365,-2778 -2877,-715 -5954,-1081 -9230,-1114 -2461,0 -4607,267 -6436,798 -1812,532 -3326,1297 -4523,2295 -1198,981 -2096,2178 -2677,3592 -582,1414 -881,2977 -881,4706z"/>
  <polygon id="16" class="fil2 str0" points="430081,112134 422099,112134 422099,54162 400313,54162 400313,46977 451866,46977 451866,54162 430081,54162 "/>
  <path id="17" class="fil2 str0" d="M470905 85193l0 26940 -7982 0 0 -65157 16913 0c2861,0 5289,100 7284,316 1995,216 3825,549 5471,998 4557,1231 8032,3343 10427,6320 2411,2960 3609,6685 3609,11125 0,2644 -416,4989 -1264,7068 -848,2078 -2029,3891 -3559,5421 -1530,1530 -3359,2777 -5488,3742 -2128,981 -4490,1696 -7084,2146l0 199 19291 27822 -7983 0 -20056 -26940 -9579 0zm0 -31031l0 23847 7849 0c2428,0 4507,-84 6237,-250 1713,-150 3259,-449 4623,-864 2760,-848 4889,-2195 6386,-4042 1497,-1846 2245,-4273 2245,-7250 -33,-2794 -748,-5039 -2145,-6752 -1397,-1697 -3326,-2927 -5804,-3676 -1164,-349 -2561,-615 -4191,-765 -1613,-166 -3675,-249 -6186,-249l-9014 0z"/>
  <path id="18" class="fil2 str0" d="M516336 112134l26492 -65157 6885 0 26592 65157 -8631 0 -7650 -19557 -27472 0 -7684 19557 -8531 0zm29884 -55079c-2927,8115 -5720,15499 -8364,22135l-2511 6203 21802 0 -2511 -6219c-2677,-6752 -5405,-14119 -8215,-22118l-200 0z"/>
  <path id="19" class="fil2 str0" d="M603824 102007c2362,-7118 4889,-14285 7600,-21519l12490 -33510 7982 0 -24729 65157 -6918 0 -24729 -65157 7982 0 12490 33510c2744,7234 5288,14401 7650,21519l183 0z"/>
  <polygon id="20" class="fil2 str0" points="651251,104950 684677,104950 684677,112134 643268,112134 643268,46977 682865,46977 682865,54162 651251,54162 651251,75215 679372,75215 679372,82400 651251,82400 "/>
  <polygon id="21" class="fil2 str0" points="707159,46977 707159,104950 738973,104950 738973,112134 699177,112134 699177,46977 "/>
 </g>
</svg>
