<svg xmlns="http://www.w3.org/2000/svg" width="36" height="36" viewBox="0 0 36 36"><defs><style>.a{fill:#fff;}.b{fill:#00b8e3;}</style></defs><g transform="translate(-2801 4005)"><g transform="translate(1607.8 -3861)"><circle class="a" cx="18" cy="18" r="18" transform="translate(1193.2 -144)"/></g><path class="b" d="M15,0A15,15,0,1,0,30,15,15.017,15.017,0,0,0,15,0Zm1.875,24.375h-3.75v-3.75h3.75Zm1.875-8.6-1.875,1.875v1.1h-3.75V16.875a1.875,1.875,0,0,1,.549-1.326L16.1,13.125a2.671,2.671,0,0,0,.776-1.875,1.875,1.875,0,0,0-3.75,0v1.875H9.375V11.25a5.625,5.625,0,0,1,11.25,0,6.357,6.357,0,0,1-1.875,4.526Z" transform="translate(2804 -4002)"/></g></svg>