<svg xmlns="http://www.w3.org/2000/svg" width="36" height="36" viewBox="0 0 36 36"><defs><style>.a{fill:#fff;}.b{fill:#00b8e3;}</style></defs><g transform="translate(-277 95)"><g transform="translate(277 -95)"><circle class="a" cx="18" cy="18" r="18"/><path class="b" d="M15.236,0A15.236,15.236,0,1,0,30.471,15.236,15.236,15.236,0,0,0,15.236,0Z" transform="translate(3.047 3.047)"/></g><g transform="translate(305.142 -87.024) rotate(90)"><path class="a" d="M17.415,5.84a.293.293,0,0,0-.115-.233L10.087.061A.291.291,0,0,0,9.908,0a.294.294,0,0,0-.274.4V4.074h0c-.067-.007.069,0,0,0h0l-1.788.158A7.855,7.855,0,0,0,0,12.078V13.1a7.855,7.855,0,0,0,7.846,7.846h5.24V17.327H7.846A4.229,4.229,0,0,1,3.621,13.1V12.078A4.229,4.229,0,0,1,7.846,7.853H9.634v3.424a.294.294,0,0,0,.453.341L17.3,6.073A.3.3,0,0,0,17.415,5.84Z" transform="translate(-1.767 19.182) rotate(-90)"/></g></g></svg>