<svg id="Group_13" data-name="Group 13" xmlns="http://www.w3.org/2000/svg" width="349.997" height="349.997" viewBox="0 0 349.997 349.997">
  <defs>
    <style>
      .cls-1 {
        fill: #00b8e3;
      }
    </style>
  </defs>
  <path id="Icon_2" data-name="Icon 2" class="cls-1" d="M621.81,521.561c27.932-2.236,36.738-4.575,81.138-.151,0-2.695,0-5.3,0-7.9,0-3.069,1.15-5.451,4.332-6.144,2.74-.6,5.006,1.849,5.494,5.833a55.652,55.652,0,0,1,.194,5.78c.576,35.846-.929,71.634-3.718,107.349-1.218,15.593-3.805,31.081-5.829,47.086,1.968.4,4.086.673,6.094,1.293a4.411,4.411,0,0,1,3.44,4.932c-.185,2.659-1.778,3.887-4.1,4.452a10.636,10.636,0,0,1-2.462.2c-6.609.016-13.22.136-19.826-.028-5.538-.137-6.783-1.38-7.275-6.718-1.644-17.822-2.695-35.719-5-53.451-2.655-20.446-6.389-40.752-9.712-61.11-.2-1.239-.907-2.394-1.849-4.782-1.32,2.227-2.467,3.361-2.688,4.654-2.873,16.81-6.143,33.577-8.258,50.488-2.629,21.02-4.283,42.163-6.34,63.254-.656,6.708-1.4,7.546-7.972,7.679-6.056.124-12.117.044-18.174.013-1.37-.008-3.164.316-4.015-.4-1.505-1.27-3.158-3.135-3.367-4.916-.15-1.278,1.669-3.345,3.111-4.114,1.8-.958,4.119-.943,6.421-1.387-8.714-52.668-9.674-105.453-10.071-158.982-2.206.895-3.738,1.386-5.15,2.11-11.915,6.106-24.691,9.183-37.869,10.871-2.51.322-5.841-.44-5.694,4.491,2.383.425,4.9.463,7.024,1.392,1.5.656,3.584,2.677,3.423,3.81-.248,1.757-2.107,4.6-3.415,4.681-7.948.458-15.942.433-23.9.1-1.2-.05-3.123-2.511-3.2-3.942-.081-1.463,1.362-3.626,2.743-4.4,1.81-1.012,4.212-.962,6.872-1.468V514.218c-5.035-1.663-10.178-2.778-14.755-5.039-4.615-2.28-8.775-5.556-12.923-8.677-2.507-1.887-3.136-4.795-1.048-7.273,2.138-2.536,4.965-1.872,7.424-.132,2.24,1.586,4.246,3.517,6.54,5.013,15.532,10.134,35.637,7.31,48.832-6.784,12.33-13.168,13.5-34.392,2.659-48.709-1.329-1.754-2.824-3.383-4.126-5.155-1.747-2.376-1.475-4.625.766-6.564,2.345-2.03,4.516-1.447,6.573.511,7.483,7.12,11.652,16.038,13.194,26.054,4.025,26.17-11.489,48.952-37.238,55.145-3.908.941-3.908.941-5.486,5.486,3.314-.349,6.188-.607,9.048-.962a95.84,95.84,0,0,0,33.525-10.891c5.159-2.756,8.329-6.432,9.083-12.7,1.814-15.109,6.515-29.518,11.976-43.685,4.506-11.686,4.451-11.708,16.549-11.551a6.327,6.327,0,0,0,.826.007c5.535-.668,9.525,1.257,12.138,6.43,1.556,3.082,3.89,5.772,6.477,9.512,2.858-4.12,5.18-7.153,7.156-10.4,2.369-3.887,5.42-6.063,10.163-5.554a34.009,34.009,0,0,0,6.6.021c5.094-.45,8.268,1.63,10.225,6.42a14.218,14.218,0,0,0,4.732,6.4c16.036,10.456,25.237,25.894,31.478,43.291,7.325,20.416,8.936,41.317,3.324,62.507a39.513,39.513,0,0,1-1.948,6.3c-1.07,2.353-2.849,4.39-5.773,3.343a4.836,4.836,0,0,1-3.313-5.909c1.036-4.835,2.56-9.58,3.351-14.449,4.243-26.137-3.427-58.431-23.437-78.773,1.443,6.058,2.56,10.517,3.551,15,.529,2.4,1.459,4.965,1.044,7.244a6.651,6.651,0,0,1-3.916,4.269c-1.18.379-3.549-1.141-4.537-2.454-1.079-1.434-1.168-3.606-1.705-5.453-2.834-9.757-5.588-19.54-8.562-29.254a68.474,68.474,0,0,0-3.412-7.827c-6.168-2.154-9.927-.326-12.749,4.879a82.1,82.1,0,0,1-7.586,10.8c-3.26,4.209-5.909,4.209-9.18,0a78.755,78.755,0,0,1-7.587-10.8c-2.806-5.24-6.581-7.027-13.086-4.854C627.781,471.7,621.433,495.546,621.81,521.561Zm68.258,152.788,2.768-.336c9.055-46.742,9.446-94.16,10.776-142.264a295.177,295.177,0,0,0-82.277-.012c0,3.4-.048,6.093.01,8.786.2,9.633.345,19.269.694,28.9,1.172,32.172,2.6,64.327,8.113,96.134.539,3.1.5,6.453,4.149,9.631.869-2.4,1.793-3.942,1.955-5.557,1.8-18.052,2.929-36.192,5.349-54.159,2.675-19.877,6.409-39.615,9.881-59.379,1.056-6.005,2.024-6.516,8.351-6.8,1.922-.086,3.855.076,5.776-.012,4.318-.2,6.6,1.918,7.371,6.075,1.712,9.18,3.79,18.3,5.224,27.523,4.476,28.8,8.8,57.623,10.157,86.8C688.439,671.252,689.479,672.789,690.068,674.348ZM556.7,419.211l-10.947-4.224c-14.673,14.854-24.006,35.993-46.159,45.161.532,3.181,1.3,6.59,1.642,10.044.982,9.858,2.093,19.719,2.563,29.607a76.375,76.375,0,0,0,3.341,18.548c2.758,9.193,4.693,18.634,6.913,27.984.314,1.316.813,3.013.269,4.01-.82,1.5-2.361,3.32-3.825,3.551a5.673,5.673,0,0,1-4.572-2.277c-1.124-1.746-1.18-4.17-1.732-6.294-2.627-10.088-5.266-20.172-8-30.634-24.157-4.081-47.6-3.55-71.489-.354a213.792,213.792,0,0,0-12.447,83.9c31.805.218,63.272-.028,95.773.089,0-7.495.017-14.277-.01-21.059-.006-1.925-.712-4.084-.049-5.708.732-1.8,2.545-4.142,4.111-4.324,1.52-.179,3.7,1.8,4.878,3.37.862,1.152.748,3.171.76,4.8.064,8.264.233,16.534-.038,24.788-.221,6.7-1.728,7.907-8.663,8.067-4.38.1-8.767.02-14.152.02-1.386,21.607-2.753,42.88-4.164,64.852-.139-.246.015.476.41.648,3.087,1.339,6.485,2.483,5.279,6.941-1.053,3.884-4.382,3.56-7.411,3.575-4.955.022-9.915.112-14.867-.023-6.124-.169-7.343-1.6-7.867-7.945-1.558-18.9-3.192-37.805-6.241-56.909-.5,1.255-1.325,2.478-1.447,3.768-1.654,17.546-3.2,35.1-4.8,52.651-.717,7.862-1.216,8.335-8.924,8.451-4.679.069-9.36-.013-14.041.018-3.164.021-6.31-.192-7.237-3.935-.991-4,2.09-5.155,4.951-6.372a1.655,1.655,0,0,0,.714-.734l-3.739-64.7c-5.225-.083-10.343-.089-15.457-.266-5.583-.193-7.094-1.141-7.391-6.629a224.711,224.711,0,0,1-.185-26.392c1.39-21.782,5.228-43.142,12.7-63.745a11.7,11.7,0,0,0,.973-3.142c.635-11.48,1.188-22.964,1.837-35.924a52.078,52.078,0,0,0-3.364,4.911,145.127,145.127,0,0,0-14.96,76.822c.139,1.913.737,4.16-.026,5.671a8.02,8.02,0,0,1-4.628,3.705c-2.477.65-4.215-1.228-4.471-3.705-.564-5.474-1.352-10.99-1.2-16.466.691-24.457,5.094-48.1,16.336-70.133a78.031,78.031,0,0,1,15.466-21.263,19.757,19.757,0,0,0,4.993-7.3c1.781-5.053,5.016-6.837,10.064-6.394a44.247,44.247,0,0,0,6.6,0c4.192-.265,7.118,1.137,9.676,4.81,4.982,7.151,10.024,7.316,14.963.349,2.766-3.9,5.806-5.516,10.317-5.147a24.766,24.766,0,0,0,4.952-.01c6.054-.732,10.159,1.361,11.791,7.564a17.571,17.571,0,0,0,1.979,3.636c5.611.475,9.06-3.112,12.115-6.351,6.788-7.2,13.091-14.856,19.494-22.412,3.734-4.408,7.107-9.133,10.97-13.421a39.079,39.079,0,0,1,8.1-6.949c7.158-4.5,16.193-1.463,18.564,6.7,1.241,4.269.628,9.14.471,13.726-.1,2.743-1.816,4.72-4.795,4.628-2.91-.089-4.453-1.837-4.519-4.816A7.344,7.344,0,0,0,556.7,419.211ZM425.724,503.026h68.518c-.378-18.733-1.984-37.1-9.37-54.253-4.934-1.209-8.212-.772-11.555,3.013-7.524,8.52-18.218,8.636-25.963.387-3.511-3.738-6.915-4.973-12.209-3.209C427.655,466.109,426.34,484.528,425.724,503.026Zm52.043,172.721c1.646-2.47,2.832-3.449,2.951-4.545a546.742,546.742,0,0,0,3.68-62.454H470.049c1.86,20.952,3.653,41.39,5.542,61.821C475.7,671.8,476.569,672.965,477.767,675.747Zm-42.435-67.006c.868,21.157,1.547,41.628,4.091,61.991.165,1.318,1.528,2.485,2.334,3.721l2.2-.107c1.127-10.611,1.723-21.291,2.773-31.92,1.094-11.063,2.472-22.1,3.787-33.685ZM512.254,402c0,6.329.165,12.663-.046,18.984-.185,5.5-1.517,6.756-6.913,7.088-3.014.187-6.052.14-9.073.03a35.3,35.3,0,0,0-19.54,4.413c-11.472,6.4-23.937,5.89-35.4-.919a22.235,22.235,0,0,0-13.143-3.522c-4.387.238-8.8.182-13.2.012-5.621-.218-7.179-1.369-7.188-6.734-.022-14.3-.625-28.7.849-42.869,1.856-17.845,15.3-38.119,41.77-43.2a52.233,52.233,0,0,1,61.871,51.029C512.277,391.547,512.25,396.775,512.254,402Zm-9.645,15.816c0-10.684.084-20.815-.018-30.942a43.225,43.225,0,0,0-38.312-42.661c-20.748-2.578-40.994,11.875-45.8,33.257-2.976,13.254-.621,26.7-1.4,40.884l8.425-.43c-1.472-6.205-3.283-11.445-3.84-16.815-.648-6.27-.324-12.655-.193-18.986.13-6.283,1.023-7.273,7.181-7.3q31.375-.147,62.751.01c5.795.03,6.839.991,6.872,6.754.068,12.037,1.643,24.29-4.943,36.231Zm-72.052-33.05c.461,7.257.074,13.68,1.4,19.729a28.474,28.474,0,0,0,46.162,15.838c11.3-9.324,11.948-21.913,10.421-35.567Zm189.391-13.578c10-24,22.329-33.327,43.269-32.975,19.7.331,32.557,10.474,41.078,32.782,9.512,2.139,17.278,6.668,16.778,18.384-.36,8.459-5.357,13.049-17.286,16.241-7.657,19.631-21.437,31.218-43.538,30.881-13.362-.2-31.676-8.285-39.307-30.656-4.938-1.974-11.581-1.857-14.449-7.721a26.116,26.116,0,0,1-3-10.858C603.448,378.781,607.926,374.7,619.948,371.191Zm31.438-.266c-12.866,10.5-13.432,10.7-30.586,10.947a14.025,14.025,0,0,0-2.462.086c-3.5.693-5.139,3.136-5.24,6.44a5.958,5.958,0,0,0,4.479,6.182,14.016,14.016,0,0,0,4.043.279c6.446.026,6.654.163,8.453,6.323.307,1.05.506,2.133.852,3.166a32.928,32.928,0,0,0,63-1.347c.377-1.309.365-2.735.77-4.033.907-2.909,2.713-4.668,6.036-4.38a19.66,19.66,0,0,0,5.679.117c3.389-.729,5.114-3.266,4.917-6.644-.2-3.33-2.024-5.817-5.555-6.081-2.427-.182-4.9.458-7.361.511-5.466.121-10.951.4-16.4.081C670.788,381.922,660.737,377.742,651.386,370.925Zm-19.266.015c6.024-1.366,6.024-1.366,12.812-8.9,4.213-4.674,5.4-4.937,10.087-.8a47.65,47.65,0,0,0,23.492,11.241c4.995.914,10.079,1.445,15.16-.043-4.425-16.173-18.522-26.279-33.959-24.856C645.355,348.914,633.009,359.361,632.121,370.94Zm-74.412,61.541c18.671.016,32.99,14.242,33.029,32.817a32.993,32.993,0,1,1-65.985.112A32.531,32.531,0,0,1,557.709,432.482Zm-.468,25.254,8.609,8.5c4.535-5.392,8.453-10.144,7.82-17.128C566.053,450.082,563.847,451.228,557.241,457.736ZM540.731,482.5a28.232,28.232,0,0,0,17.825-9.433l-9.248-8.576C545.221,469.953,541.889,474.716,540.731,482.5Zm-67.673-77.16c.557,2.664,2.29,4.874,4.993,4.279a6.72,6.72,0,0,0,4.093-4.231,16.613,16.613,0,0,0-.2-8.04c-.385-1.457-2.584-3.563-3.733-3.426-1.77.212-3.612,1.867-4.889,3.365-.726.853-.385,2.614-.494,3.675A28.925,28.925,0,0,0,473.058,405.343Zm-12.083-6.028c-.228-2.983-1.264-5.587-4.709-5.514-3.207.067-4.76,2.25-4.873,5.42-.029.817-.036,1.633-.038,2.452-.008,5.132,1.7,8.03,4.787,8.133,3.065.1,4.887-2.885,4.843-8.04C460.984,400.946,461.037,400.126,460.975,399.314Zm178.849-2.927c0,1.1-.084,2.205.016,3.3.266,2.849,1.866,4.681,4.717,4.711,2.954.03,4.516-2.019,4.636-4.778a23.968,23.968,0,0,0-.611-8.105c-.437-1.382-2.934-3.249-4.1-3-1.718.367-3.366,2.224-4.478,3.838-.661.959-.233,2.667-.3,4.039Zm30.87-3.411c-.521-2.63-1.8-4.815-4.8-4.654-2.807.15-4.479,1.963-4.568,4.846-.074,2.46-.5,5.144.326,7.316.62,1.642,2.972,3.654,4.522,3.629,1.527-.026,3.293-2.217,4.412-3.834.668-.966.289-2.655.37-3.828A29.118,29.118,0,0,0,670.693,392.977Z" transform="translate(-389.289 -334.36)"/>
</svg>
