<svg xmlns="http://www.w3.org/2000/svg" width="400.388" height="338.639" viewBox="0 0 400.388 338.639">
  <defs>
    <style>
      .cls-1, .cls-2 {
        fill: #00b8e3;
      }

      .cls-2 {
        font-size: 70px;
        font-family: GothamProNarrow-Medium, Gotham Pro;
        font-weight: 500;
      }
    </style>
  </defs>
  <g id="Group_12" data-name="Group 12" transform="translate(0 -1)">
    <path id="Icon_1" data-name="Icon 1" class="cls-1" d="M824.486,562.452c-3.573,14.771-6.835,28.249-10.251,42.375,2.52.5,4.9.618,6.964,1.491,1.711.724,4.406,2.533,4.263,3.513a8.07,8.07,0,0,1-3.578,5.245c-1.91,1.072-4.575,1.031-6.916,1.061-8.367.111-16.734.048-25.1.048-89.951,0-179.9-.161-269.852.149-16.193.056-24.144-4.536-28.368-23.055-3.064-13.426-.086-25.194,8.014-36.145,1.735-2.343,3.006-6.118,2.495-8.861-5.275-28.281,1.1-54.639,13.71-79.589,5.74-11.358,13.441-21.828,21.084-32.081,4.134-5.544,8.457-10.766,10.562-17.434,1.889-5.98,5.862-8.16,12.138-8.269,8.2-.145,14.975.69,19.916,8.721,3.729,6.06,9.294,5.189,14.568-1.388,3.051-3.8,5.7-6.973,11.4-7.317,9.788-.589,17.188.667,21.2,11.465,1.944,5.231,7.262,9.325,11.393,13.606,14.126,14.638,27.514,29.851,38.442,47.092,4.058,6.4,7.157,13.1,6.913,20.9-.279,9-6.777,14.228-15.606,12.131-3.4-.807-6.563-2.664-9.766-4.184-3.913-1.857-7.754-3.865-13.642-6.817,1.368,4.354,1.942,6.475,2.7,8.529,2.933,7.966,4.376,15.972,2.445,24.517-.9,3.972-.524,8.231-.716,12.139,7.694,2.947,74.512,3.036,81.254.635,0-7.687-.484-15.126.14-22.47.594-6.989,2.348-13.881,3.759-21.756a32.18,32.18,0,0,0-5.906,1.753c-3.99,2.02-7.664,4.706-11.735,6.517-5.083,2.264-10.493,2.933-15.244-.86-5-3.994-6.267-9.723-4.366-15.377,2.165-6.439,4.57-13.236,8.643-18.51,11.842-15.326,24.426-30.093,37.02-44.821,5.024-5.872,11.1-10.8,13.831-18.451,1.444-4.049,4.834-5.89,9.176-5.856a67.784,67.784,0,0,0,7.167-.079c5.689-.566,9.473,1.85,12.755,6.458,5.856,8.219,10.584,8.083,16.785.169,4.809-6.14,19.628-9.3,25.8-5.057,2,1.371,3.016,4.207,4.4,6.423,3.125,5,5.652,10.484,9.383,14.973,20.506,24.682,33.858,52.567,38.013,84.456.951,7.287.366,14.925-.588,22.26-.938,7.215-1.1,12.924,4.034,19.6,10.382,13.491,9.768,32.258.642,47.087-3.452,5.611-8.664,8.249-14.85,8.644-6.847.434-13.742.133-20.612.077-1.173-.011-2.709,0-3.438-.687a53.632,53.632,0,0,1-4.665-5.566c1.817-1.219,3.53-3.244,5.472-3.5,4.415-.566,8.942-.291,13.424-.3,16.2-.052,23.33-8.255,21.4-24.761a57.844,57.844,0,0,0-1.578-7.888c-2.336-8.885-5.032-10.917-14.536-10.945C851.354,562.424,838.233,562.452,824.486,562.452Zm-45.973-54.393c2.053-1.929,3.017-2.653,3.759-3.558,8.19-9.972,21.806-13.388,34.785-2.952,6.762,5.437,15.366,4.842,24.361,3.8,0-3.4.186-6.037-.029-8.642-1.955-23.54-6.577-46.479-15.549-68.438-3.787-9.266-10.38-10.277-17.319-2.536-8.853,9.877-20.479,9.936-29.3.148-7.136-7.918-13.836-7.313-17.1,2.572-4.922,14.914-8.869,30.169-12.734,45.4-1.494,5.892-1.634,12.126-2.459,18.737C759.613,494.588,771,496.962,778.513,508.059Zm-144.94-15.512c-1.27-7.79-1.867-14.85-3.632-21.606-3.824-14.645-7.783-29.29-12.6-43.631-2.763-8.222-9.562-8.878-15.76-2.513-.414.427-.768.912-1.178,1.344-9.23,9.691-20.37,9.363-29.132-.853-6.18-7.206-13.391-6-16.96,2.705a216.444,216.444,0,0,0-14.6,58.713c-.667,6.052-.1,12.241-.1,19.067,8.957.276,17.485.274,25.326-5.507,10.771-7.939,21.83-6.78,31.515,2.533,1.609,1.547,3.209,3.1,5.365,5.186C609.154,496.687,620.481,494.8,633.574,492.547Zm3.159,111.719c9.3,2.852,100.379,2.425,106.6-.317-3.431-13.717-6.85-27.4-10.181-40.72-16.065-1.853-79.967-1.147-86.521.857C643.392,577.236,640.138,590.438,636.733,604.265ZM756,603.559l2.223-.088c1.646-3.96,3.7-7.8,4.868-11.9,5.529-19.5,9.716-39.255,10.805-59.568.4-7.35-.808-14.294-5.208-20.365-6.742-9.3-18.679-9.008-24.334,1a29.61,29.61,0,0,0-3.891,13.465,137.385,137.385,0,0,0,1.79,25.745c2.495,14.322,5.811,28.51,9.151,42.668C752.159,597.712,754.428,600.553,756,603.559Zm43.293.1,2.98-.077c1.785-4.291,3.821-8.5,5.309-12.89,6.543-19.292,8.241-39.492,10.355-59.543.529-5.01-1.435-10.519-3.182-15.473-2.076-5.891-6.142-10.144-13.044-10.537-7.368-.419-11.4,4.118-14.69,9.753-3.967,6.79-4.45,14.348-3.2,21.692,3.085,18.121,6.674,36.165,10.441,54.16C795.2,595.2,797.577,599.363,799.291,603.66ZM622.565,604c1.607-1.3,2.531-1.723,2.922-2.434a46.6,46.6,0,0,0,2.6-5.675c8.136-21.117,10.406-43.382,12.257-65.641.4-4.788-1.452-9.981-3.153-14.665-2.151-5.923-6.335-10.026-13.2-10.451-7.013-.434-11.047,3.877-14.253,9.126-3.733,6.107-4.24,12.985-3.614,19.933,1.874,20.83,5.565,41.317,12.157,61.2C619.236,598.3,621,600.928,622.565,604Zm-44.514-.3,2.282-.054c1.583-3.343,3.671-6.546,4.65-10.06,2.477-8.884,4.942-17.821,6.517-26.894,2.035-11.719,3.416-23.568,4.663-35.4.807-7.663-1-14.884-6.131-20.921-6.346-7.473-16.483-7.177-22.284.717a29,29,0,0,0-5.437,20.286c.649,7.411,1.092,14.877,2.371,22.189,2.156,12.315,4.622,24.592,7.541,36.743C573.345,594.969,576.062,599.248,578.051,603.7ZM555.6,562.931H526.286c3.762,14.211,4.087,27.9-.442,42.345h40.161C562.468,590.88,559.1,577.175,555.6,562.931ZM847.151,462.107c1.462,14.706,3.646,29.385,4.184,44.125.547,14.995,2.077,30.176-3.108,45.043a34.98,34.98,0,0,0,4.4,1.063c14.078,1.147,14.446.9,16.859-12.557a58.512,58.512,0,0,0,.717-8.009c.641-16.081-3.3-31.359-8.769-46.243C858.3,476.994,854.33,468.745,847.151,462.107ZM531.807,551.674c-8.62-30.416-1.913-59.922.3-89.556-18.193,27.333-26.07,56.625-18.912,89.556Zm141.6-44.711c.94-13.129-22.983-48.231-36.811-55.462.281,2.1.452,3.763.731,5.406,1.536,9.065,3.708,18.074,4.454,27.2.579,7.1,2.916,11.513,9.962,13.761,4.48,1.428,8.439,4.42,12.778,6.389C667.043,505.4,669.857,505.91,673.406,506.962Zm32.354-1.214c3.225,0,5.19.557,6.6-.093,7.3-3.378,14.614-6.8,21.566-10.816,1.828-1.058,2.974-4.189,3.431-6.563,2.032-10.506,3.722-21.081,5.476-31.64a47.039,47.039,0,0,0,.319-4.849c-14.848,13.222-27.528,27.632-35.982,45.269C706.091,499.3,706.3,502.162,705.76,505.749ZM521.344,583.97c-2.221-6.132-3.765-12.229-6.586-17.662-2.6-5.014-6.618-4.865-9.566.006-6.216,10.276-6.284,24.33-.222,35,2.754,4.842,7.063,5.2,9.727.362C517.633,596.335,519.089,590.185,521.344,583.97Zm31.607-67.825c-4.156,0-7.327-.667-9.981.215-2.036.678-4.879,3.345-4.837,5.066.174,7.335.545,14.828,2.28,21.914,1.512,6.179,6.529,7.959,12.539,6.413Zm274.342-.181v35.141c8.371-.041,12.717-4.368,13.508-11.2.841-7.256.188-14.685.188-23.248ZM602.126,575.78l-2.029-.1c-2.683,9.465-5.366,18.927-8.164,28.793,6.7,2.06,12.473,2.657,18.607-.488Zm186.313,29.529c-3.194-10.978-5.9-20.268-8.6-29.561l-1.707-.294-9.067,29.855ZM733.645,366.216c1.137-10.641.958-21.632,3.679-31.852,6.171-23.188,22.357-37.052,45.6-41.564,36.737-7.131,69.935,21.131,70.29,59.617.108,11.637.078,23.276-.014,34.915-.07,8.984-1.3,10.1-10.543,10.245-2.687.041-5.379.111-8.062-.009a38.674,38.674,0,0,0-21.215,4.861,40.032,40.032,0,0,1-40.265-.4,33.563,33.563,0,0,0-18.614-4.458c-3.878.116-7.768.132-11.644-.015-6.226-.238-7.938-1.642-8.221-7.989-.346-7.742-.083-15.513-.083-23.269Zm109.476,20.845c-.255-17.061,2.23-33.22-1.948-48.985-6.068-22.909-24.325-36.539-48.248-36.6-27.1-.07-48.5,22.338-48.854,49.4-.118,8.956-.079,17.915,0,26.872.025,2.9.407,5.8.666,9.241H754.6c-1.6-7.371-3.6-13.95-4.319-20.664-.728-6.79-.34-13.722-.159-20.584.152-5.761,1.8-7.778,7.4-7.825q35.847-.287,71.7-.02c6.2.048,7.8,1.941,7.89,8.282.181,12.79,1.173,25.705-4.479,37.836-.3.634.217,1.649.447,3.049Zm-82.843-38.909c0,7.886-1.038,15.14.192,21.987,3.784,21.054,27.691,34.11,46.609,24.771,16.833-8.31,24.084-25.248,18.607-46.759ZM548.786,334.418c12.317.016,15.406-10.641,23.281-15.45,11.6,9.739,24.277,16.678,39.381,17.866,3.456.272,6.953.039,10.813.039,0-2.829.545-4.756-.082-6.158-8.441-18.845-26.935-30.165-50.1-22.483a34.891,34.891,0,0,0-4.884,2.217c-2.8,1.437-5.806,1.459-6.586-1.748-.487-2,.8-6.088,2.258-6.627,6.629-2.456,13.523-5.162,20.467-5.627,21.957-1.47,40.076,10.789,47.961,31.477,1.544,4.051,3.169,6.9,8.145,8.172,9.4,2.412,13.379,8.575,13.177,17.673C652.425,362.5,648,368.142,638.3,370.6c-4,1.013-5.91,2.915-7.492,6.559-8.066,18.567-21.819,29.22-42.6,30.071-21.53.88-36.649-8.956-46.09-27.668-2.606-5.165-5.11-8.492-11.2-9.818-6.774-1.477-11.775-9.445-11.982-16.282-.206-6.915,5-15.323,12.227-17.047,5.557-1.327,7.883-4.244,9.511-9.11a25.171,25.171,0,0,1,4.744-8.516c1.246-1.416,4.586-2.641,5.874-1.932,1.433.789,2.53,4.067,2.129,5.908C552.635,326.391,550.718,329.774,548.786,334.418Zm23.792-1.536c-9.651,9.751-21,14.215-34.835,11.9-4.608-.773-8.651,3.75-8.721,8.332-.066,4.374,3.973,8.447,8.615,8.651,2.56.113,5.958-.8,7.472.5,1.98,1.7,2.691,5.062,3.566,7.83,5.483,17.364,22.592,29.393,40.2,28.145,16.174-1.148,29.95-12.813,34.878-30.246,1.439-5.089,2.785-7.7,9.017-6.652,6.821,1.144,11.007-4.053,9.63-10.354-1.03-4.72-4.618-6.415-11.235-5.786-19.044,1.807-37.644,1.142-54.2-10.3A29.285,29.285,0,0,0,572.579,332.882Zm237.6,27.173c-.816-1.642-2.369-2.92-3.607-4.354-1.578,1.418-4.07,2.594-4.525,4.309a17.717,17.717,0,0,0,.141,8.739c.381,1.439,2.709,2.975,4.357,3.244,1.006.165,2.753-1.8,3.5-3.174.648-1.19.355-2.892.467-4.221C810.433,362.965,810.786,361.273,810.181,360.055Zm-33.2,7.55a38.8,38.8,0,0,0,4.334,4.655c1.365-1.328,3.566-2.472,3.91-4.026a19.875,19.875,0,0,0-.075-8.764c-.372-1.515-2.687-3.569-4.08-3.533s-3.025,2.2-3.936,3.791c-.667,1.16-.337,2.893-.436,4.166C776.776,365.295,776.415,366.767,776.985,367.606ZM574.6,350.2c-3.483-.654-5.415,1.947-5.621,7.213-.256,6.627,1.457,9.932,5.221,9.405a6.291,6.291,0,0,0,3.989-2.861c.812-1.434.6-3.453.714-4.358C578.761,355.217,579.613,351.139,574.6,350.2Zm19.539,11.879c.806,1.7,2.162,4.454,3.213,4.42,1.957-.061,4.127-1.522,5.677-2.968.849-.792.753-2.739.838-4.18.334-5.7-2.069-9.675-5.713-9.139-5.108.753-3.892,5.021-4.1,7.005C594.059,359.76,593.684,361.116,594.141,362.077Z" transform="translate(-490.467 -276.696)"/>
    <g id="Group_10" data-name="Group 10" transform="translate(150.988 15)">
      <text id="_" data-name="?" class="cls-2" transform="translate(33.795 50)"><tspan x="0" y="0">?</tspan></text>
    </g>
  </g>
</svg>
