<svg xmlns="http://www.w3.org/2000/svg" width="347.282" height="353.169" viewBox="0 0 347.282 353.169">
  <defs>
    <style>
      .cls-1 {
        fill: #00b8e3;
      }
    </style>
  </defs>
  <path id="Icon_3" data-name="Icon 3" class="cls-1" d="M822.888,502.714c-1.252,5.252-2.792,10.453-3.711,15.761A864.787,864.787,0,0,0,807.242,619.8c-.4,7.536-1.413,8.563-9,8.66-6.119.079-12.241-.034-18.362.03-3.348.034-6.351-.546-6.69-4.551-.352-4.159,2.69-4.952,5.969-5.308a33.7,33.7,0,0,0,3.636-.848c-.938-7.076-1.815-13.9-2.753-20.72-4.805-34.892-6.446-70-6.76-105.172-.055-6.192-1.818-9.989-7.705-11.954-3.151-1.051-6.061-2.8-9.16-4.035-4.152-1.654-5.907-4.5-5.793-9.049.205-8.092-.042-16.193.021-24.292.032-3.96.184-7.716-3.49-10.578-2.767-2.155-2.538-5.312.264-7.034,3.692-2.271,3.234-5.5,3.247-8.8.03-7.259-.135-14.525.061-21.778.2-7.388,2.8-9.06,9.41-6.061,7.809,3.549,15.5,7.358,24.069,11.448,2.052-4.546,4.224-8.653,5.779-12.985,1.8-5.025,5.122-6.994,10.229-6.5a16.43,16.43,0,0,0,3.336-.008c6.368-.7,11.718.618,13.932,7.13H829.9c4.362-10.061,13.784-7.19,22.1-6.646,1.985.131,4.282,3.2,5.52,5.424,2.262,4.082,3.84,8.546,6,13.544,5.616-2.695,10.976-4.883,15.893-7.819,1.853-1.106,3.172-3.78,3.886-6.012,2.031-6.354,3.622-12.85,5.392-19.288,2.98-10.848,11.758-16.455,22.688-14.5,2.87.513,5.718,1.391,5.877,4.836.157,3.41-2.2,4.834-5.365,5.107a9.037,9.037,0,0,0-1.586.427c-1.437,7.279-1.437,7.279-12.218,8.209-1.189,3.9-2.563,8.06-3.678,12.289-.327,1.247-.458,3.169.244,3.96,3.616,4.082,2.606,8.943,2.621,13.584.072,21.222-.169,42.448.155,63.665.1,6.515-2.146,10.017-8.126,12.75-17.583,8.035-13.451,3.063-14.768,22.5-.491,7.236-.363,14.513-.578,21.77-.058,1.937.132,4.109-.674,5.729-.763,1.533-2.843,3.6-4.065,3.425a7,7,0,0,1-4.787-3.638c-.867-2.17-.466-4.911-.371-7.4.341-8.926.8-17.846,1.156-26.77a14.706,14.706,0,0,0-.679-3.053c-5.982,3.113-11.06.4-16.2-2.232-5.7-2.916-11.6-5.456-17.175-8.586-4.787-2.688-9.066-3.12-14.046-.275-6.269,3.586-12.99,6.368-19.409,9.7-4.527,2.348-8.995,4.208-15.1.638,1.09,42.79,2.821,84.17,9.775,125.173a10.006,10.006,0,0,0,1.494,3.754c.316.474,1.493.372,3.171.712.472-4.283,1.038-8.348,1.357-12.435,2.616-33.66,6.687-67.123,13.462-100.222.167-.819.262-1.654.439-2.47,2.269-10.451,7.7-13.626,17.9-10.644,3.321.972,3.922,3.589,4.446,6.386,2.007,10.689,4.137,21.356,6,32.072a648.058,648.058,0,0,1,8.809,76.416c.148,2.783.546,5.558.948,8.318.113.774.663,1.483,1.593,3.455,1.426-1.717,3.111-2.812,3.311-4.134,1.795-11.847,3.556-23.709,4.87-35.618,1.1-9.979,1.474-20.036,2.394-30.036.516-5.615,2.521-8.2,5.52-8.036s4.768,2.929,4.254,8.646c-1.725,19.164-3.737,38.3-5.7,57.448-.337,3.281-.982,6.53-1.538,10.143,2.6.624,4.915.717,6.691,1.748,1.466.85,3.421,3.093,3.143,4.214-.441,1.78-2.5,4.394-3.987,4.467a230.636,230.636,0,0,1-25.831.027c-4.1-.263-4.4-4.442-4.644-7.852-.6-8.348-.806-16.743-1.814-25.039-2.924-24.064-6.125-48.093-9.312-72.123-.734-5.528-1.756-11.022-2.847-16.493-.277-1.393-1.321-2.631-2.012-3.941Zm40.373-91.526c-1.694,17.738-.949,60.933,1.166,66.559L886.4,467.2c1.571-11.954,1.059-60.875-.795-67.107ZM829.154,467.06c7.742,3.614,15.167,7.083,23.45,10.95V411.224c-7.6-3.789-14.771-8.288-23.45-11.012Zm-34.813-55.6c-.049,22.445-.07,44.011.1,67.088,5.151-2.472,8.822-4.206,12.469-5.991,3.937-1.924,7.85-3.893,11.38-5.645,1.623-16.15,1-60.483-1.067-66.768Zm-33.818,55.407,24.245,11.451c.339-23.133.215-44.964.146-66.8-8.24-3.975-15.263-8.807-24.392-11.316,0,8.479.042,15.979-.015,23.478-.03,3.938-.105,7.545,3.767,10.34,2.815,2.032,3.234,6-.038,7.721-3.937,2.074-3.739,4.995-3.72,8.338C760.543,455.364,760.522,460.651,760.522,466.862ZM696.5,562.892c-.848,7.147-1.9,14.276-2.5,21.443-.979,11.681-1.68,23.385-2.461,35.082-.551,8.244-1.252,8.968-9.425,9.047-4.729.045-9.46-.064-14.188.035-3.311.069-6.4-.437-7.144-4.189-.7-3.485,2.125-4.735,4.723-5.929.436-.2.707-.766.982-1.081-1.284-21.473-2.562-42.865-3.9-65.216-4.376-.134-8.7-.338-13.031-.384-9.06-.1-9.41-.417-9.828-9.32a227.663,227.663,0,0,1,10.322-80.852c1.877-5.851,4-11.612,3.308-17.928a7.581,7.581,0,0,1,.043-1.672c.352-3.194,1.855-5.226,5.334-5.106,3.239.112,4.52,2.458,4.336,5.07-.409,5.791-.556,11.783-2.2,17.274-7.142,23.9-12.177,48.08-12.03,73.154.013,2.232.083,4.466.189,6.7a6.954,6.954,0,0,0,.456,1.594c5.57,2.019,83.115,2.755,96.243.766.208-3.319.733-6.858.606-10.374-.87-24.084-4.386-47.714-11.794-70.734a56.352,56.352,0,0,1-2.611-15.45,199.894,199.894,0,0,0-5.171-41.434c-1.034-4.271-2.586-8.415-3.793-12.271-5.419-1.892-8.787-.818-12.367,3.113-7.7,8.452-18.142,8.026-26.4-.149-1.509-1.491-3.244-3.182-5.173-3.732-4.414-1.257-6.939.09-8.233,4.561-2.014,6.951-3.54,14.042-5.222,21.086-.322,1.349-.221,2.818-.651,4.119-.872,2.629-2.656,4.414-5.6,3.82-2.855-.575-4.181-2.711-3.877-5.561.347-3.276.98-6.522,1.661-10.877-7.922,5.389-12.041,12.695-17.329,18.9-3.606,4.233-6.855,8.846-10.874,12.638-9.032,8.524-17.85,7.76-24.376-2.691-4.071-6.52-6.805-13.955-9.575-21.2-2.169-5.675-3.471-11.684-5.249-17.856a48.139,48.139,0,0,1-6.7-.736c-1.517-.379-3.877-1.248-4.093-2.274-.828-3.943-3.294-5.493-6.658-7.137-3.486-1.7-2.741-6.016.91-7.867,7.954-4.032,22.2,1.942,24.864,10.654,2.767,9.049,4.932,18.286,7.86,27.278,2.136,6.56,4.557,13.181,10.587,17.708,4.373-.556,6.777-3.8,9.211-6.713,5.178-6.2,9.983-12.72,15.2-18.891a82.31,82.31,0,0,1,11-11.376c5.135-4.109,11.445-6.884,13.156-14.169a4.219,4.219,0,0,1,1.555-1.9c4.159-3.393,18.923-1.94,22.491,2.2.725.841,1.267,1.842,2,2.679,4.157,4.771,9.472,5.495,12.5.329,5.458-9.3,13.783-6.711,21.45-6.44,2.053.074,4.9,2.864,5.819,5.064,2.568,6.116,5.214,12.44,6.208,18.933,2.147,14.037,3.237,28.236,4.866,42.359a57.067,57.067,0,0,0,1.841,9.754c8.2,27.444,13.263,55.317,11.924,84.114-.052,1.116-.035,2.235-.131,3.348-.541,6.347-1.347,7.229-7.523,7.408-4.947.142-9.9.028-15.434.028-1.464,22.09-2.878,43.436-4.349,65.65.883.513,2.8,1.136,3.958,2.437,1.131,1.268,2.3,3.43,1.96,4.832-.364,1.493-2.429,3.564-3.842,3.638-7.214.374-14.465.41-21.683.094-3.874-.169-4.54-3.5-4.779-6.744-.673-9.179-1.232-18.37-2.082-27.534C700.8,583.5,699.557,573,698.433,562.49Zm-23.189-10.826c-1.635,21.807,2.185,61.118,7.221,67.507,3.2-11.565,2.3-22.678,3.745-33.431,1.5-11.183,2.311-22.462,3.461-34.076Zm47.963.231H707.157c1.245,11.713,1.912,22.834,3.735,33.759,1.785,10.7.164,21.917,4.294,32.958C719.752,612.631,723.34,570.393,721.272,552.3ZM644.324,343.28c.733-9.117.555-18.422,2.373-27.317,5.2-25.436,28.258-41.745,52.882-40.561,27.039,1.3,47.4,20.793,49.653,47.284,1.154,13.558.449,27.275.546,40.919.03,4.04-1.989,6.217-6.086,6.274-2.5.034-5,.121-7.5.02-8.094-.325-15.427.717-22.942,5.061-10.708,6.19-22.7,5.508-33.407-.809a28.875,28.875,0,0,0-17.307-4.261c-2.765.179-5.551.072-8.326.025-8.271-.142-9.168-1-9.235-9.03-.05-5.851-.01-11.7-.01-17.554Zm95.8,16.084c0-10.962.114-21.76-.023-32.554-.278-21.936-18.772-40.7-40.941-41.692-21.712-.97-41.944,15.863-43.8,37.432-1,11.611-.328,23.365-.328,35.056,0,.709.739,1.418,1.317,2.45l7.6-.468c-6.4-11.388-5.248-23.159-5.222-34.773.016-7.646.921-8.516,8.752-8.544q29.99-.1,59.982-.012c7.823.023,8.707.833,8.809,8.527.156,11.636,1.035,23.389-5.015,34.659a45.541,45.541,0,0,0,4.9.625A25.277,25.277,0,0,0,740.123,359.364Zm-14.1-33.572c-19.156-.03-38.067-.622-57.375.415,0,5.687-.2,10.416.036,15.121.714,14.235,11.18,25.619,24.8,27.2a29.03,29.03,0,0,0,31.615-20.269C727.336,341.193,726.838,334.05,726.025,325.793Zm55.364-13.256c6.948-19.841,19.261-32.412,40.69-33.211,23.478-.878,36.895,12.286,44.211,32.968,12.719,4.231,16.676,8.65,16.452,18.114-.21,8.975-4.514,13.371-16.966,16.941-1.017,2.125-2.122,4.628-3.387,7.051-8.375,16.043-21.735,24.629-39.65,24.233-17.618-.391-30.308-9.724-38.057-25.49-1.79-3.645-3.229-6.379-7.777-7.492-7.885-1.927-12.183-8.258-12.153-15.888.028-7.445,3.992-12.888,11.469-15.656C777.772,313.532,779.388,313.138,781.389,312.536Zm31.265-.37c-8.321,9-18.01,12.775-29.581,11.316a9.015,9.015,0,0,0-1.657-.091c-4.144.246-7.129,3.046-7.094,6.629s3.024,6.329,7.188,6.587c8.406.518,8.406.518,10.559,7.882,7.3,24.964,38.059,32.856,55.6,13.853,4.137-4.484,6.585-10.821,8.829-16.684,1.413-3.695,2.76-5.55,6.892-5.449,6.961.173,10.292-2.344,9.871-6.776s-4.126-6.535-10.979-5.65C844.566,326.064,828.022,323.349,812.655,312.166Zm42.53,2.182c-1.042-13.724-16.9-26.264-32.145-25.775-14.458.464-27.949,11.156-29.866,24.227,5.534-.464,9-3.811,12.106-7.738,5.431-6.864,5.46-6.909,12.241-1.666C828.526,311.906,840.806,315.814,855.185,314.348ZM611.162,283.606c-4.7,1.2-9.27,2.963-10.777,8.087-.479,1.635.589,4.2,1.786,5.637.51.61,3.326-.285,4.81-1.051,1.414-.73,2.3-2.443,3.693-3.271,3.5-2.091,8.752-1.154,10.508,1.857,2.056,3.522.538,6.421-2.091,8.9-1.614,1.525-3.92,2.6-4.923,4.427a43.643,43.643,0,0,0-4.116,10.542c-.669,2.741.81,4.932,4.038,5.014,2.558.065,4.453-1.059,4.391-3.842-.109-4.819,2.91-7.438,6.148-10.268a25.749,25.749,0,0,0,5.584-7.17,12.246,12.246,0,0,0-6.035-17.4c-2.747-1.193-5.854-1.553-8-2.091A46.027,46.027,0,0,0,611.162,283.606Zm2.65,46.553c-2.91.2-5.682,3.455-5.191,6.44.494,3.008,2.192,5.134,5.483,5.241,2.969.1,5.827-2.991,5.739-5.98C619.754,332.82,616.725,329.957,613.812,330.159Zm106.327,6.4c-1.377-1.788-2.97-4.177-4.867-4.613-2.777-.638-4.451,1.971-4.708,4.586a20.911,20.911,0,0,0,.474,8.127c.426,1.354,2.823,2.884,4.326,2.877,1.524-.007,3.478-1.508,4.428-2.911a4.093,4.093,0,0,0,.434-2.9C720.227,338.7,720.671,337.249,720.14,336.559Zm-21.468,3.1a22.788,22.788,0,0,0-.22-3.283c-.554-2.658-2.147-5.128-4.868-4.422-1.875.488-3.8,2.805-4.625,4.764-.786,1.865-.384,4.349-.13,6.517.327,2.8,2.108,4.565,4.967,4.478s4.413-1.942,4.721-4.756a30.061,30.061,0,0,0,.02-3.294Zm131.739,6.334c1.239,1.469,3.094,3.078,4.82,3.241,1.188.112,2.913-1.92,3.8-3.366.633-1.032.328-2.678.341-4.052.063-6-1.077-8.166-4.364-8.42-3.625-.28-5.079,2.22-4.984,9.553C830.057,343.35,829.688,345.136,830.411,345.994ZM817.6,338.087c-.326-2.771-1.593-4.792-4.658-4.688-2.987.1-4.4,2.026-4.438,4.888-.031,2.746-.31,5.634.438,8.187.391,1.329,2.778,2.867,4.243,2.847,1.417-.02,3.246-1.657,4.084-3.068.758-1.278.424-3.211.536-4.476C817.725,340.287,817.727,339.179,817.6,338.087Z" transform="translate(-569.983 -275.342)"/>
</svg>
