<svg xmlns="http://www.w3.org/2000/svg" width="24.484" height="19.591" viewBox="0 0 24.484 19.591"><defs><style>.a{fill:#00b8e3;}</style></defs><path class="a" d="M14.244,4H5.673A3.668,3.668,0,0,0,2,7.673v9.8a3.668,3.668,0,0,0,3.673,3.673L4.449,22.366v1.224H5.673l2.449-2.449h2.449V15.02H4.449V6.449h11.02V8.9h2.449V7.673A3.668,3.668,0,0,0,14.244,4ZM5.673,16.244a1.224,1.224,0,1,1-1.224,1.224A1.224,1.224,0,0,1,5.673,16.244ZM24.737,10.93a1.227,1.227,0,0,0-1.188-.808H14.742a1.244,1.244,0,0,0-1.2.808L11.8,15.963v6.746a.879.879,0,0,0,.845.882h.76a.914.914,0,0,0,.832-.931V21.142h9.8V22.66a.924.924,0,0,0,.845.931h.747a.879.879,0,0,0,.845-.882l.012-1.677V15.963L24.733,10.93Zm-10,.416h8.8l1.261,3.673H13.485Zm-.5,7.347a1.224,1.224,0,1,1,1.224-1.224A1.224,1.224,0,0,1,14.244,18.693Zm9.8,0a1.224,1.224,0,1,1,1.224-1.224A1.224,1.224,0,0,1,24.04,18.693Z" transform="translate(-2 -4)"/></svg>