<svg xmlns="http://www.w3.org/2000/svg" width="30" height="24" viewBox="0 0 30 24"><defs><style>.a{fill:none;}.b{fill:#00b8e3;}</style></defs><g transform="translate(-2492 4225)"><rect class="a" width="30" height="24" transform="translate(2492 -4225)"/><path class="b" d="M14.3,4H5.69A3.685,3.685,0,0,0,2,7.69v9.84a3.685,3.685,0,0,0,3.69,3.69L4.46,22.45v1.23H5.69l2.46-2.46h2.46V15.07H4.46V6.46H15.53V8.92h2.46V7.69A3.685,3.685,0,0,0,14.3,4ZM5.69,16.3a1.23,1.23,0,1,1-1.23,1.23A1.234,1.234,0,0,1,5.69,16.3Zm19.151-5.338a1.233,1.233,0,0,0-1.193-.812H14.8a1.25,1.25,0,0,0-1.205.812l-1.747,5.055v6.777a.883.883,0,0,0,.849.886h.763a.918.918,0,0,0,.836-.935V21.22h9.84v1.525a.928.928,0,0,0,.849.935h.75a.883.883,0,0,0,.849-.886l.012-1.685V16.017l-1.759-5.055ZM14.8,11.38h8.844l1.267,3.69H13.537L14.8,11.38Zm-.5,7.38a1.23,1.23,0,1,1,1.23-1.23A1.234,1.234,0,0,1,14.3,18.76Zm9.84,0a1.23,1.23,0,1,1,1.23-1.23A1.234,1.234,0,0,1,24.14,18.76Z" transform="translate(2492.398 -4226.481)"/></g></svg>