<svg xmlns="http://www.w3.org/2000/svg" width="18.42" height="25.223" viewBox="0 0 18.42 25.223">
  <defs>
    <style>
      .cls-1 {
        fill: #00b8e3;
      }
    </style>
  </defs>
  <g id="icon-start-finish" transform="translate(-57.58 0)">
    <g id="Group_177" data-name="Group 177" transform="translate(57.58 0)">
      <g id="Group_176" data-name="Group 176">
        <path id="Path_230" data-name="Path 230" class="cls-1" d="M59.174,62.7a.813.813,0,0,0-.983-.557.768.768,0,0,0-.586.936l5.287,19.855a.8.8,0,0,0,.784.581.852.852,0,0,0,.2-.024.768.768,0,0,0,.586-.936Z" transform="translate(-57.58 -58.296)"/>
        <path id="Path_231" data-name="Path 231" class="cls-1" d="M111.105,10.313Q109.873,5.541,108.64.769a.844.844,0,0,0-.832-.751c-4.619-.351-7.651,4.475-12.27,4.124-.364-.047-.6.152-.51.5q1.232,4.772,2.465,9.544a.927.927,0,0,0,.832.751c4.619.351,7.651-4.475,12.27-4.124C110.96,10.856,111.194,10.657,111.105,10.313Zm-3.624-9.094.68,2.633a8,8,0,0,0-2.738.6l-.68-2.633A8,8,0,0,1,107.481,1.219ZM97.964,11.06q-.387-1.5-.773-2.992a7.92,7.92,0,0,0,2.875-.656l-.68-2.633a27.286,27.286,0,0,0,2.676-1.492l.68,2.633a27.3,27.3,0,0,1-2.676,1.492l.773,2.992A7.923,7.923,0,0,1,97.964,11.06Zm3.565,2.016-.69-2.672A27.033,27.033,0,0,0,103.5,8.923l.69,2.672A27.008,27.008,0,0,1,101.529,13.075Zm1.986-4.164-.772-2.992a24.485,24.485,0,0,1,2.681-1.471l.773,2.992A24.526,24.526,0,0,0,103.514,8.911Zm3.388,1.194-.69-2.672a7.985,7.985,0,0,1,2.722-.59l.69,2.672A7.985,7.985,0,0,0,106.9,10.106Z" transform="translate(-92.704 0)"/>
      </g>
    </g>
  </g>
</svg>
