<svg xmlns="http://www.w3.org/2000/svg" width="21.318" height="21.32" viewBox="0 0 21.318 21.32">
  <path id="Exclusion_1" data-name="Exclusion 1" d="M-5527.836-2619.679h-11.01a2.29,2.29,0,0,1-2.2-2.365v-5.563a.675.675,0,0,1,.176-.457l7.105-7.629a.574.574,0,0,1,.425-.19.575.575,0,0,1,.424.19l7.106,7.629a.669.669,0,0,1,.175.457v5.563A2.29,2.29,0,0,1-5527.836-2619.679Zm-7.415-8.09v3.3h3.772v-3.3Zm-7.527-1.354a1.178,1.178,0,0,1-.865-.384,1.388,1.388,0,0,1,0-1.857l8.081-8.676a3.036,3.036,0,0,1,2.223-.959,3.037,3.037,0,0,1,2.221.957l2.407,2.583v-1.382a1.271,1.271,0,0,1,1.22-1.314,1.273,1.273,0,0,1,1.225,1.314v4.008l3.229,3.469a1.385,1.385,0,0,1,0,1.857,1.176,1.176,0,0,1-.864.384,1.18,1.18,0,0,1-.864-.384l-8.08-8.678a.673.673,0,0,0-.493-.21.68.68,0,0,0-.495.21l-8.079,8.678A1.176,1.176,0,0,1-5542.778-2629.124Z" transform="translate(5543.999 2641)" fill="#00b8e3"/>
</svg>
