<svg xmlns="http://www.w3.org/2000/svg" width="16" height="16.002" viewBox="0 0 16 16.002">
  <defs>
    <style>
      .cls-1 {
        fill: #cbf1f9;
      }
    </style>
  </defs>
  <path id="Food_Icon" data-name="Food Icon" class="cls-1" d="M-5628.717-2625.148l-1.061-1.062a.514.514,0,0,1,0-.728l4.1-4.1a2.47,2.47,0,0,0,.545.068c.067,0,.136,0,.2-.009l.954-.081.914.984-4.926,4.927a.511.511,0,0,1-.364.15A.515.515,0,0,1-5628.717-2625.148Zm11.992.093a.541.541,0,0,1-.387-.174l-6.435-6.974-1.477.126c-.037,0-.075,0-.112,0a1.327,1.327,0,0,1-.94-.392l-2.543-2.553a4.759,4.759,0,0,1-.91-5.419.532.532,0,0,1,.395-.3.658.658,0,0,1,.092-.008.533.533,0,0,1,.384.16l13.432,13.492a.549.549,0,0,1,.159.386.548.548,0,0,1-.159.385l-1.1,1.108a.55.55,0,0,1-.386.158Zm-3.054-8.163-2-2a2.764,2.764,0,0,1,.713-2.647l2.988-2.987a.493.493,0,0,1,.7,0,.5.5,0,0,1,0,.7l-2.656,2.656a.641.641,0,0,0,0,.907.641.641,0,0,0,.909,0l2.643-2.641a.511.511,0,0,1,.724,0,.509.509,0,0,1,0,.723l-2.642,2.643a.642.642,0,0,0,0,.908.643.643,0,0,0,.908,0l2.657-2.657a.493.493,0,0,1,.7,0,.494.494,0,0,1,0,.7l-2.989,2.988a2.725,2.725,0,0,1-1.944.8A2.866,2.866,0,0,1-5619.778-2633.218Z" transform="translate(5630 2641)"/>
</svg>
