<svg xmlns="http://www.w3.org/2000/svg" width="20.128" height="23.536" viewBox="0 0 20.128 23.536"><g transform="translate(-735.801 -1463.536)" opacity="0.8"><g transform="translate(738 1463.536)"><path d="M19.854,2.8H18.04A10.4,10.4,0,0,1,11.111.2a.84.84,0,0,0-1.095,0A10.4,10.4,0,0,1,3.088,2.8H1.272A.734.734,0,0,0,.5,3.492v8.275c0,6.2,5.062,9.079,8.412,10.956a6.987,6.987,0,0,0,1.652.813,6.743,6.743,0,0,0,1.623-.8c3.361-1.878,8.441-4.763,8.441-10.973V3.493a.652.652,0,0,0-.226-.487A.823.823,0,0,0,19.854,2.8Zm-9.29,15.171C6.716,17.976,3.6,15.2,3.6,11.77s3.119-6.206,6.967-6.206,6.967,2.779,6.967,6.206S14.411,17.972,10.564,17.976Zm0,0" transform="translate(-2.699 0.001)" fill="#818d99"/><ellipse cx="8" cy="7" rx="8" ry="7" transform="translate(0 5)" fill="#818d99"/><path d="M4.776,7.648l3.419,5.177,4.344-6.511" transform="translate(-0.485 3.175)" fill="none" stroke="#fff" stroke-linecap="round" stroke-linejoin="round" stroke-width="3"/></g></g></svg>