<svg xmlns="http://www.w3.org/2000/svg" width="13.158" height="16" viewBox="0 0 13.158 16"><defs><style>.a{fill:#818d99;opacity:0.8;}</style></defs><path class="a" d="M101.7,2.012a1.026,1.026,0,0,0-.425-.128c-.615-.014-1.229-.007-1.842-.007a.319.319,0,0,0-.064.016V4.226a.422.422,0,0,1-.466.466H92.383c-.387,0-.541-.152-.54-.536V2.016a1.086,1.086,0,0,0-.008-.146H89.99a.97.97,0,0,0-.968.977q0,6.133,0,12.266a.892.892,0,0,0,.859.877h11.186a1.015,1.015,0,0,0,1.113-.724V2.688a1.071,1.071,0,0,0-.488-.676ZM99.184,8.1q-1.681,1.7-3.365,3.394c-.236.237-.467.476-.7.711a.439.439,0,0,1-.692,0q-1.178-1.125-2.362-2.248a.458.458,0,0,1-.021-.76l.452-.455a.439.439,0,0,1,.717-.008L94.689,10.1c.022.021.048.039.06.052.518-.508,1.026-1,1.528-1.5.571-.57,1.137-1.145,1.706-1.717a.446.446,0,0,1,.748,0c.15.15.3.3.45.456a.439.439,0,0,1,0,.7ZM93.141,2.927a3.025,3.025,0,0,0,.452.021h4.277a1.017,1.017,0,0,0,.171-.014.422.422,0,0,0,.387-.449c0-.479,0-.135,0-.615a.849.849,0,0,0-.6-.883A1.864,1.864,0,0,0,97.4.941c-.279-.007-.558,0-.838,0C96.551.86,96.541.8,96.538.736A.685.685,0,0,0,96,0h-.781c-.508.11-.536.523-.56.936h-.888a.913.913,0,0,0-.987.94c-.013.484,0,.146,0,.629a.4.4,0,0,0,.36.421Z" transform="translate(-89.022)"/></svg>