<svg xmlns="http://www.w3.org/2000/svg" width="15.898" height="15.908" viewBox="0 0 15.898 15.908"><defs><style>.a{fill:#9aa3ad;}</style></defs><path class="a" d="M1.273,15.768.219,14.712a.513.513,0,0,1,0-.725L4.3,9.912a2.429,2.429,0,0,0,.542.068,1.448,1.448,0,0,0,.2-.01L6,9.889l.909.979L2,15.768a.514.514,0,0,1-.725,0Zm11.93.093a.54.54,0,0,1-.386-.173l-6.4-6.938-1.469.126H4.84A1.319,1.319,0,0,1,3.9,8.488L1.379,5.951A4.735,4.735,0,0,1,.469.561a.531.531,0,0,1,.394-.3A.65.65,0,0,1,.955.254a.531.531,0,0,1,.381.159L14.7,13.836a.545.545,0,0,1,0,.766l-1.1,1.1a.548.548,0,0,1-.384.157ZM10.17,7.746l-1.993-2a2.749,2.749,0,0,1,.71-2.634L11.858.144a.491.491,0,0,1,.694.7L9.91,3.48a.639.639,0,0,0,.905.9l2.628-2.627a.509.509,0,1,1,.719.719L11.535,5.1a.639.639,0,1,0,.9.9l2.643-2.643a.49.49,0,0,1,.691.694L12.8,7.029a2.711,2.711,0,0,1-1.933.8A2.84,2.84,0,0,1,10.17,7.746Z" transform="translate(-0.001 -0.01)"/></svg>