<svg xmlns="http://www.w3.org/2000/svg" width="16.32" height="16.319" viewBox="0 0 16.32 16.319">
  <defs>
    <style>
      .cls-1 {
        fill: #00b8e3;
      }
    </style>
  </defs>
  <path id="icon-accommodation" class="cls-1" d="M-5531.63-2624.68h-8.428a1.753,1.753,0,0,1-1.685-1.81v-4.259a.511.511,0,0,1,.135-.35l5.438-5.839a.438.438,0,0,1,.325-.146.441.441,0,0,1,.324.146l5.44,5.839a.515.515,0,0,1,.134.35v4.259A1.753,1.753,0,0,1-5531.63-2624.68Zm-5.676-6.193v2.526h2.888v-2.526Zm-5.762-1.036a.9.9,0,0,1-.663-.294,1.063,1.063,0,0,1,0-1.421l6.186-6.641a2.324,2.324,0,0,1,1.7-.734,2.331,2.331,0,0,1,1.7.732l1.843,1.978v-1.058a.973.973,0,0,1,.933-1.006.975.975,0,0,1,.939,1.006v3.068l2.472,2.655a1.062,1.062,0,0,1,0,1.421.908.908,0,0,1-.662.294.9.9,0,0,1-.661-.294l-6.185-6.643a.516.516,0,0,0-.377-.161.524.524,0,0,0-.379.161l-6.184,6.642a.9.9,0,0,1-.662.3Z" transform="translate(5544.004 2641)"/>
</svg>
