<svg xmlns="http://www.w3.org/2000/svg" width="30" height="29.066" viewBox="0 0 30 29.066">
  <defs>
    <style>
      .cls-1 {
        fill: #00b8e3;
      }
    </style>
  </defs>
  <g id="Group_321" data-name="Group 321" transform="translate(-4055.118 -285.847)">
    <g id="_006-opposite" data-name="006-opposite" transform="translate(4055.118 285.847)">
      <g id="Group_315" data-name="Group 315" transform="translate(0 0)">
        <path id="Path_568" data-name="Path 568" class="cls-1" d="M66.06,157.446H57.89l2.629-2.186.029-.026a2.164,2.164,0,0,0,.818-1.7,2.175,2.175,0,0,0-3.308-1.865l-.044.027a2.2,2.2,0,0,0-.5.44l-6.326,5.683a2.173,2.173,0,0,0-.3,3.362.607.607,0,0,0,.062.065l6.433,5.781a2.179,2.179,0,0,0,.472.422.516.516,0,0,0,.128.077,2.177,2.177,0,0,0,2.437-3.591l-.032-.028-2.526-2.1h8.2a2.183,2.183,0,1,0,0-4.366Z" transform="translate(-38.244 -138.751)"/>
        <path id="Path_569" data-name="Path 569" class="cls-1" d="M103.2,6.633a.611.611,0,0,0-.063-.068L96.7.786a2.185,2.185,0,0,0-.477-.427A.559.559,0,0,0,96.1.287a2.177,2.177,0,0,0-2.438,3.59l.031.028,2.527,2.1h-8.2a2.183,2.183,0,0,0,0,4.367H96.2l-2.629,2.185-.029.026a2.164,2.164,0,0,0-.818,1.7,2.175,2.175,0,0,0,3.292,1.875.542.542,0,0,0,.059-.035,2.172,2.172,0,0,0,.5-.442L102.9,9.993a2.172,2.172,0,0,0,.3-3.36Z" transform="translate(-85.844)"/>
      </g>
    </g>
  </g>
</svg>
