<svg xmlns="http://www.w3.org/2000/svg" width="16.849" height="16.685" viewBox="0 0 16.849 16.685"><defs><style>.a{opacity:0.8;}.b{fill:#818d99;}</style></defs><g class="a"><path class="b" d="M12.608,274.039c-.228.461-.455.864-.663,1.2,2.276.488,3.59,1.4,3.59,2.114,0,1.029-2.705,2.462-7.11,2.462s-7.11-1.434-7.11-2.462c0-.71,1.29-1.612,3.536-2.1-.207-.339-.436-.745-.667-1.2-2.377.594-4.184,1.711-4.184,3.3,0,2.47,4.341,3.8,8.425,3.8s8.425-1.333,8.425-3.8C16.85,275.751,15.013,274.63,12.608,274.039Z" transform="translate(0.001 -264.472)"/><path class="b" d="M123.983,27.333c.864,0,4.251-4.605,4.251-7.744,0-2.189-1-4.8-4.251-4.8s-4.252,2.615-4.252,4.8C119.728,22.761,123.166,27.333,123.983,27.333Zm-1.972-8.227a1.972,1.972,0,1,1,1.972,2.032,1.994,1.994,0,0,1-1.972-2.032Z" transform="translate(-115.589 -14.785)"/></g></svg>