<svg xmlns="http://www.w3.org/2000/svg" width="12" height="14.596" viewBox="0 0 12 14.596"><defs><style>.a{fill:#818d99;opacity:0.8;}</style></defs><path class="a" d="M100.58,1.835a.936.936,0,0,0-.388-.117c-.561-.013-1.121-.006-1.68-.006a.291.291,0,0,0-.058.015V2.6c0,.418,0,.835,0,1.254a.385.385,0,0,1-.425.425c-1.168,0-2.336,0-3.505,0-.812,0-1.623,0-2.437,0-.353,0-.493-.139-.492-.489,0-.651,0-1.3,0-1.952,0-.038,0-.074-.007-.133h-.8c-.295,0-.588,0-.883,0a.885.885,0,0,0-.883.891q0,5.593,0,11.186a.813.813,0,0,0,.783.8c.061,0,.124,0,.185,0,3.339,0,6.678,0,10.016,0a.926.926,0,0,0,1.015-.66V2.451a.977.977,0,0,0-.445-.616ZM98.289,7.383q-1.533,1.548-3.069,3.095c-.215.216-.426.434-.641.648a.4.4,0,0,1-.631,0Q92.874,10.1,91.794,9.076a.418.418,0,0,1-.019-.693l.412-.415a.4.4,0,0,1,.654-.007L94.19,9.208c.02.019.044.036.055.047.472-.463.936-.911,1.393-1.366.521-.52,1.037-1.044,1.556-1.566a.407.407,0,0,1,.682,0c.137.137.273.277.41.416a.4.4,0,0,1,0,.642ZM92.778,2.669a2.759,2.759,0,0,0,.412.019q1.951,0,3.9,0a.927.927,0,0,0,.156-.013.385.385,0,0,0,.353-.409c0-.437,0-.123,0-.561A.774.774,0,0,0,97.053.9a1.7,1.7,0,0,0-.394-.042c-.254-.006-.509,0-.764,0-.007-.074-.016-.13-.019-.187A.625.625,0,0,0,95.381,0h-.712c-.463.1-.489.477-.511.854h-.81a.833.833,0,0,0-.9.857c-.012.441,0,.133,0,.574a.363.363,0,0,0,.328.384Z" transform="translate(-89.025)"/></svg>