<svg xmlns="http://www.w3.org/2000/svg" width="23" height="16" viewBox="0 0 23 16">
  <defs>
    <style>
      .cls-1 {
        fill: #00b8e3;
      }
    </style>
  </defs>
  <g id="Group_787" data-name="Group 787" transform="translate(21464.359 4587.72)">
    <g id="bedroom" transform="translate(-21464.359 -4587.72)">
      <path id="Path_848" data-name="Path 848" class="cls-1" d="M22.637,165.39c-.2,0-1.013.165-1.013.368v2.249H1.376v-8.565a.366.366,0,0,0-.363-.368c-.2,0-1.013.165-1.013.368v15.263c0,.2.813.368,1.013.368a.365.365,0,0,0,.363-.368v-3.33H21.624v3.33a.365.365,0,0,0,.363.368c.2,0,1.013-.165,1.013-.368v-8.947a.366.366,0,0,0-.363-.368Zm-.65,0" transform="translate(0 -159.074)"/>
      <path id="Path_849" data-name="Path 849" class="cls-1" d="M60.736,236.208a2.435,2.435,0,1,1-2.435-2.474A2.454,2.454,0,0,1,60.736,236.208Zm0,0" transform="translate(-53.552 -230.59)"/>
      <path id="Path_850" data-name="Path 850" class="cls-1" d="M198.668,226.708h11.914a.365.365,0,0,0,.363-.368,5.071,5.071,0,0,0-5.025-5.105h-7.252a.366.366,0,0,0-.363.368v4.737A.366.366,0,0,0,198.668,226.708Zm0,0" transform="translate(-190.087 -218.617)"/>
    </g>
  </g>
</svg>
