<svg xmlns="http://www.w3.org/2000/svg" width="24" height="24" viewBox="0 0 24 24"><g transform="translate(-738 -1501)" opacity="0.8"><g transform="translate(738 1501)"><circle cx="3.281" cy="3.281" r="3.281" transform="translate(7.557 7.557)" fill="#818d99"/><path d="M12,0a11.966,11.966,0,1,0,8.5,3.5A12,12,0,0,0,12,0Zm6.63,17.826-.768.768a.527.527,0,0,1-.768,0l-2.648-2.611a.256.256,0,0,0-.327-.055,5.854,5.854,0,0,1-3.225.921,6,6,0,1,1,6-6,5.854,5.854,0,0,1-.921,3.225c-.055.109-.055.273.055.327l2.648,2.611a.654.654,0,0,1-.055.819Z" transform="translate(0 0)" fill="#818d99"/></g></g></svg>