<svg xmlns="http://www.w3.org/2000/svg" width="16" height="13" viewBox="0 0 16 13">
  <defs>
    <style>
      .cls-1 {
        fill: #00b8e3;
        opacity: 0.204;
      }
    </style>
  </defs>
  <path id="Pulse_Icon" data-name="Pulse Icon" class="cls-1" d="M1,9H3.5a1,1,0,0,0,.894-.552l.793-1.575L6.53,12.242a1,1,0,0,0,1.935.021l2.059-7.534,1.014,3.548A1,1,0,0,0,12.5,9H15a1,1,0,1,0,0-2H13.256L11.462.726A1,1,0,0,0,9.535.738L7.544,8.05,6.47,3.757a1,1,0,0,0-1.864-.2L2.88,7H1A1,1,0,1,0,1,9Z"/>
</svg>
