<svg xmlns="http://www.w3.org/2000/svg" width="37" height="39.551" viewBox="0 0 37 39.551"><defs><style>.a{fill:#00b8e3;}</style></defs><g transform="translate(-6.172 -4.236)"><g transform="translate(6.172 4.236)"><path class="a" d="M192.4,12.89l5.725-5.329-5.723-5.332a1.355,1.355,0,0,1-.336-1.4A1.137,1.137,0,0,1,193.127,0h18.031a1.2,1.2,0,0,1,1.127,1.26V31.5a1.134,1.134,0,1,1-2.254,0V15.12h-16.9a1.141,1.141,0,0,1-1.059-.831A1.361,1.361,0,0,1,192.4,12.89Z" transform="translate(-192 -0.002)"/></g><g transform="translate(6.172 29.501)"><path class="a" d="M14.231,322.242v2.927c-7.107.719-11.225,3.054-11.385,4.109.188,1.264,5.906,4.353,15.654,4.353s15.466-3.089,15.654-4.341c-.159-1.064-4.278-3.4-11.385-4.121v-2.927C30.923,323,37,325.862,37,329.284c0,4-8.282,7.245-18.5,7.245S0,333.286,0,329.284C0,325.859,6.077,323,14.231,322.242Z" transform="translate(0 -322.242)"/></g></g></svg>