<svg xmlns="http://www.w3.org/2000/svg" width="21.828" height="21.614" viewBox="0 0 21.828 21.614"><defs><style>.a{fill:#00b8e3;}</style></defs><path class="a" d="M16.333,274.039c-.295.59-.59,1.106-.859,1.541,2.948.625,4.65,1.79,4.65,2.706,0,1.317-3.5,3.153-9.211,3.153S1.7,279.6,1.7,278.286c0-.909,1.671-2.064,4.58-2.694-.268-.434-.565-.953-.864-1.536C2.341,274.817,0,276.247,0,278.282c0,3.162,5.623,4.869,10.914,4.869s10.914-1.707,10.914-4.869C21.829,276.231,19.449,274.8,16.333,274.039Z" transform="translate(0.001 -261.537)"/><path class="a" d="M125.3,30.85c1.132,0,5.571-5.9,5.571-9.914,0-2.8-1.305-6.151-5.571-6.151s-5.571,3.348-5.571,6.151C119.727,25,124.232,30.85,125.3,30.85Zm-2.584-10.533a2.584,2.584,0,1,1,2.584,2.6,2.584,2.584,0,0,1-2.584-2.6Z" transform="translate(-114.427 -14.785)"/></svg>