<svg xmlns="http://www.w3.org/2000/svg" width="16" height="16.387" viewBox="0 0 16 16.387">
  <defs>
    <style>
      .cls-1 {
        fill: #00b8e3;
      }
    </style>
  </defs>
  <g id="armchair-silhouette" transform="translate(-341.245 -261.536)">
    <g id="Group_38" data-name="Group 38" transform="translate(341.245 261.536)">
      <g id="Group_37" data-name="Group 37">
        <path id="Path_18" data-name="Path 18" class="cls-1" d="M14.914,22.577a2.67,2.67,0,0,0-2.667,2.667v.487a11.068,11.068,0,0,0-3.667-.487,11.07,11.07,0,0,0-3.667.487v-.487a2.67,2.67,0,0,0-2.667-2.667,1.667,1.667,0,0,0-.64,3.206.5.5,0,0,1,.307.461l.333,1.333a2.337,2.337,0,0,0,2.069,2.317.813.813,0,1,0,.726.015H12.12a.812.812,0,1,0,.726-.015,2.336,2.336,0,0,0,2.068-2.317l.333-1.333a.5.5,0,0,1,.307-.461,1.667,1.667,0,0,0-.64-3.206Z" transform="translate(-0.58 -15.051)"/>
        <path id="Path_19" data-name="Path 19" class="cls-1" d="M11.83,9.413a15.363,15.363,0,0,1,2.75-.221,15.363,15.363,0,0,1,2.75.221,3.677,3.677,0,0,1,2.25-2.634V5a5,5,0,0,0-10,0V6.78A3.678,3.678,0,0,1,11.83,9.413Z" transform="translate(-6.58)"/>
      </g>
    </g>
  </g>
</svg>
