<svg xmlns="http://www.w3.org/2000/svg" width="19" height="15.203" viewBox="0 0 19 15.203"><defs><style>.a{fill:#818d99;opacity:0.8;}</style></defs><path class="a" d="M11.5,4H4.85A2.847,2.847,0,0,0,2,6.85v7.6A2.847,2.847,0,0,0,4.85,17.3l-.95.95v.95h.95l1.9-1.9h1.9V12.551H3.9V5.9h8.551V7.8h1.9V6.85A2.847,2.847,0,0,0,11.5,4ZM4.85,13.5a.95.95,0,1,1-.95.95A.95.95,0,0,1,4.85,13.5ZM19.644,9.378a.952.952,0,0,0-.922-.627H11.888a.966.966,0,0,0-.931.627l-1.35,3.9v5.235a.682.682,0,0,0,.656.684h.589a.709.709,0,0,0,.646-.722V17.3h7.6V18.48a.717.717,0,0,0,.656.722h.579a.682.682,0,0,0,.656-.684l.009-1.3V13.283l-1.359-3.9ZM11.888,9.7H18.72l.979,2.85H10.912ZM11.5,15.4a.95.95,0,1,1,.95-.95A.95.95,0,0,1,11.5,15.4Zm7.6,0a.95.95,0,1,1,.95-.95A.95.95,0,0,1,19.1,15.4Z" transform="translate(-2 -4)"/></svg>