<svg id="question" xmlns="http://www.w3.org/2000/svg" width="32" height="32" viewBox="0 0 32 32">
  <defs>
    <style>
      .cls-1 {
        fill: #00b8e3;
      }
    </style>
  </defs>
  <path id="Path_131" data-name="Path 131" class="cls-1" d="M147.042,128.531h-.7v5.456a7.34,7.34,0,0,1-7.331,7.331H128.531v.7a5.462,5.462,0,0,0,5.456,5.456H145.2l5.764,4.8a.937.937,0,0,0,1.538-.72V133.987A5.453,5.453,0,0,0,147.042,128.531Zm0,0" transform="translate(-120.498 -120.498)"/>
  <path id="Path_132" data-name="Path 132" class="cls-1" d="M23.967,13.49V5.456A5.453,5.453,0,0,0,18.511,0H5.456A5.453,5.453,0,0,0,0,5.456V23.029a.937.937,0,0,0,1.538.72l5.764-4.8H18.511A5.462,5.462,0,0,0,23.967,13.49Zm-11.983,1.44a.938.938,0,1,1,.938-.937A.938.938,0,0,1,11.983,14.929Zm.938-4.146v.2a.938.938,0,1,1-1.875,0v-1a.937.937,0,0,1,.938-.937A1.573,1.573,0,1,0,10.41,7.463a.938.938,0,1,1-1.875,0h0a3.448,3.448,0,1,1,4.385,3.32Zm0,0"/>
</svg>
