<svg xmlns="http://www.w3.org/2000/svg" width="15.625" height="19" viewBox="0 0 15.625 19"><defs><style>.a{fill:#00b8e3;}</style></defs><path class="a" d="M104.073,2.39a1.219,1.219,0,0,0-.505-.152c-.731-.017-1.46-.008-2.188-.008a.378.378,0,0,0-.076.02v2.77a.5.5,0,0,1-.553.553H93.013c-.46,0-.642-.181-.641-.637V2.393a1.289,1.289,0,0,0-.009-.173H90.172a1.152,1.152,0,0,0-1.15,1.16V17.947a1.059,1.059,0,0,0,1.02,1.042h13.284a1.206,1.206,0,0,0,1.322-.859V3.192a1.272,1.272,0,0,0-.579-.8ZM101.09,9.614q-2,2.016-4,4.03c-.28.281-.555.565-.835.844a.521.521,0,0,1-.822,0q-1.4-1.336-2.8-2.67a.544.544,0,0,1-.025-.9l.536-.54A.521.521,0,0,1,94,10.367l1.757,1.624c.026.025.057.047.072.061.615-.6,1.219-1.186,1.814-1.779.678-.677,1.35-1.36,2.026-2.039a.53.53,0,0,1,.888,0c.178.178.355.361.534.542a.521.521,0,0,1,0,.836ZM93.913,3.476a3.593,3.593,0,0,0,.537.025h5.079a1.207,1.207,0,0,0,.2-.017.5.5,0,0,0,.46-.533V2.22a1.008,1.008,0,0,0-.711-1.048,2.214,2.214,0,0,0-.513-.055c-.331-.008-.663,0-.995,0-.009-.1-.021-.169-.025-.244A.814.814,0,0,0,97.3,0h-.927c-.6.13-.637.621-.665,1.112H94.655a1.085,1.085,0,0,0-1.172,1.116c-.016.574,0,.173,0,.747a.473.473,0,0,0,.427.5Z" transform="translate(-89.022)"/></svg>