<svg xmlns="http://www.w3.org/2000/svg" xmlns:xlink="http://www.w3.org/1999/xlink" width="16" height="16" viewBox="0 0 16 16">
  <defs>
    <style>
      .cls-1 {
        fill: none;
      }

      .cls-2 {
        clip-path: url(#clip-path);
      }

      .cls-3 {
        fill: #00b8e3;
      }
    </style>
    <clipPath id="clip-path">
      <rect class="cls-1" width="16" height="16"/>
    </clipPath>
  </defs>
  <g id="Group_159" data-name="Group 159" transform="translate(-168 -779)">
    <g id="tent_1_" data-name="tent (1)" class="cls-2" transform="translate(168 779)">
      <path id="Path_56" data-name="Path 56" class="cls-3" d="M151.941,180.465a.469.469,0,1,1-.469-.469A.469.469,0,0,1,151.941,180.465Zm0,0" transform="translate(-146.285 -174.371)"/>
      <path id="Path_57" data-name="Path 57" class="cls-3" d="M151.941.469A.469.469,0,1,1,151.473,0,.469.469,0,0,1,151.941.469Zm0,0" transform="translate(-146.285)"/>
      <path id="Path_58" data-name="Path 58" class="cls-3" d="M422.934,30.469a.469.469,0,1,1-.469-.469A.469.469,0,0,1,422.934,30.469Zm0,0" transform="translate(-408.809 -29.063)"/>
      <path id="Path_59" data-name="Path 59" class="cls-3" d="M30.941,240.465a.469.469,0,1,1-.469-.469A.469.469,0,0,1,30.941,240.465Zm0,0" transform="translate(-29.066 -232.496)"/>
      <path id="Path_60" data-name="Path 60" class="cls-3" d="M15.74,187.936a.469.469,0,0,0-.629.21l-.145.29a8.017,8.017,0,0,1-2.131-1.954l-4.461-5.969a.485.485,0,0,0-.75,0L3.2,186.481a8.143,8.143,0,0,1-2.162,1.954l-.145-.29a.469.469,0,0,0-.839.419l.17.34a.461.461,0,0,0,.41.821l.357.715a.469.469,0,0,0,.839-.419l-.373-.747a9.694,9.694,0,0,0,.972-.663l.433,1.733a.468.468,0,0,0,.455.355H4.718v-2.344a.468.468,0,0,1,.137-.331l2.812-2.812a.47.47,0,0,1,.664,0l2.812,2.812a.468.468,0,0,1,.137.331V190.7h1.437a.468.468,0,0,0,.454-.355l.433-1.733a9.291,9.291,0,0,0,.941.663l-.373.747a.469.469,0,0,0,.839.419l.358-.716a.477.477,0,0,0,.16.038.469.469,0,0,0,.42-.259.464.464,0,0,0-.17-.6l.17-.34A.469.469,0,0,0,15.74,187.936Zm0,0" transform="translate(0 -174.7)"/>
      <path id="Path_61" data-name="Path 61" class="cls-3" d="M181,387.228h4.688v-2.15l-1.875-1.875v.743A3.276,3.276,0,0,1,181,387.18Zm0,0" transform="translate(-175.344 -371.228)"/>
      <path id="Path_62" data-name="Path 62" class="cls-3" d="M182.875,383.2,181,385.078v1.165a2.348,2.348,0,0,0,1.875-2.3Zm0,0" transform="translate(-175.344 -371.228)"/>
      <path id="Path_63" data-name="Path 63" class="cls-3" d="M2.379,34.361a2.346,2.346,0,0,0,2.344-2.344c-.021-.095.041-.3-.21-.469A.461.461,0,0,0,4.1,31.5a.964.964,0,0,1-1.248-.885A.933.933,0,0,1,2.9,30.3a.468.468,0,0,0-.052-.417c-.163-.245-.563-.231-.469-.21a2.344,2.344,0,1,0,0,4.687Zm0,0" transform="translate(-0.004 -28.736)"/>
      <path id="Path_64" data-name="Path 64" class="cls-3" d="M335.719,120.937h-.555a1.4,1.4,0,0,0-1.32-.937,1.443,1.443,0,0,0-1.351.937h-.555a.938.938,0,0,0,0,1.875h3.781a.938.938,0,0,0,0-1.875Zm0,0" transform="translate(-320.656 -116.25)"/>
      <path id="Path_65" data-name="Path 65" class="cls-3" d="M181.938,2.812h3.75a.937.937,0,0,0,0-1.875h-.555a1.4,1.4,0,0,0-2.64,0h-.555a.937.937,0,0,0,0,1.875Zm0,0" transform="translate(-175.344)"/>
    </g>
  </g>
</svg>
