<svg xmlns="http://www.w3.org/2000/svg" width="30" height="25.987" viewBox="0 0 30 25.987">
  <defs>
    <style>
      .cls-1 {
        fill: #00b8e3;
      }
    </style>
  </defs>
  <g id="Group_308" data-name="Group 308" transform="translate(-35.281 -597.184)">
    <path id="Subtraction_1" data-name="Subtraction 1" class="cls-1" d="M15,25.987a1.039,1.039,0,0,1-.739-.306L2.781,14.2a8.2,8.2,0,0,1-1.152-1.237,8.116,8.116,0,0,1-.876-1.456A8.033,8.033,0,0,1,.2,9.873,8.1,8.1,0,0,1,10.211.279a8.033,8.033,0,0,1,1.9.787A8.164,8.164,0,0,1,15,3.871a8.166,8.166,0,0,1,2.888-2.8,8.082,8.082,0,0,1,8.54.318,8.125,8.125,0,0,1,2.935,3.564,8.072,8.072,0,0,1-.992,8.016A8.2,8.2,0,0,1,27.219,14.2l-.149.149-.149-.028c-.36-.067-.751-.129-1.162-.183a7.463,7.463,0,0,0-.285-1.338,4.222,4.222,0,0,0-1.111-1.889,2.88,2.88,0,0,0-.963-.591,3.212,3.212,0,0,0-1.11-.189h0a4.4,4.4,0,0,0-1.429.191,2.226,2.226,0,0,0-1.08.777,4.307,4.307,0,0,0-.707,1.694,10.793,10.793,0,0,0-.192,1.22,10.611,10.611,0,0,0-1.211.253,5.3,5.3,0,0,0-2.241,1.142,2.82,2.82,0,0,0-.688.972,2.72,2.72,0,0,0-.2,1.116,3.726,3.726,0,0,0,.259,1.423,2.31,2.31,0,0,0,.954,1.064,5.786,5.786,0,0,0,2.045.676c.4.069.854.123,1.343.161a9.325,9.325,0,0,0,.3,1.161l-3.7,3.7A1.039,1.039,0,0,1,15,25.987Z" transform="translate(35.281 597.184)"/>
    <path id="Path_560" data-name="Path 560" class="cls-1" d="M343.911,299.164H341.37v-2.339a1.924,1.924,0,0,0-3.836,0v2.339h-2.541a1.771,1.771,0,1,0,0,3.531h2.541v2.339a1.924,1.924,0,0,0,3.836,0v-2.339h2.541a1.771,1.771,0,1,0,0-3.531Z" transform="translate(-281.896 313.667)"/>
  </g>
</svg>
