<svg xmlns="http://www.w3.org/2000/svg" width="16.32" height="16.32" viewBox="0 0 16.32 16.32">
  <defs>
    <style>
      .cls-1 {
        fill: #00b8e3;
      }
    </style>
  </defs>
  <path id="Food_Icon" data-name="Food Icon" class="cls-1" d="M-5628.692-2624.833l-1.082-1.083a.526.526,0,0,1,0-.742l4.181-4.18a2.493,2.493,0,0,0,.555.069,1.5,1.5,0,0,0,.207-.01l.975-.082.932,1-5.024,5.025a.527.527,0,0,1-.372.153A.524.524,0,0,1-5628.692-2624.833Zm12.232.1a.554.554,0,0,1-.4-.177l-6.562-7.114-1.505.128c-.04,0-.079.005-.116.005a1.352,1.352,0,0,1-.958-.4l-2.594-2.6a4.853,4.853,0,0,1-.929-5.527.544.544,0,0,1,.4-.306.574.574,0,0,1,.092-.008.539.539,0,0,1,.391.163l13.7,13.76a.559.559,0,0,1,.162.394.558.558,0,0,1-.162.392l-1.125,1.13a.557.557,0,0,1-.394.161Zm-3.116-8.326-2.042-2.043a2.817,2.817,0,0,1,.726-2.7l3.048-3.046a.5.5,0,0,1,.354-.148.5.5,0,0,1,.356.148.5.5,0,0,1,0,.712l-2.709,2.709a.653.653,0,0,0-.192.463.654.654,0,0,0,.192.463.651.651,0,0,0,.463.193.654.654,0,0,0,.464-.193l2.7-2.694a.517.517,0,0,1,.368-.153.521.521,0,0,1,.37.153.519.519,0,0,1,.154.369.518.518,0,0,1-.154.369l-2.7,2.7a.657.657,0,0,0,0,.927.655.655,0,0,0,.926,0l2.712-2.71a.5.5,0,0,1,.708,0,.5.5,0,0,1,0,.711l-3.048,3.047a2.78,2.78,0,0,1-1.983.819,2.928,2.928,0,0,1-.715-.089Z" transform="translate(5630.002 2641)"/>
</svg>
