<svg xmlns="http://www.w3.org/2000/svg" width="15.629" height="15.629" viewBox="0 0 15.629 15.629">
  <defs>
    <style>
      .cls-1 {
        fill: #fd5571;
      }
    </style>
  </defs>
  <g id="идет_набор" data-name="идет набор" transform="translate(-738 -1501)">
    <g id="magnifying-glass_1_" data-name="magnifying-glass (1)" transform="translate(738 1501)">
      <circle id="Ellipse_17" data-name="Ellipse 17" class="cls-1" cx="2.486" cy="2.486" r="2.486" transform="translate(4.618 4.618)"/>
      <path id="Path_187" data-name="Path 187" class="cls-1" d="M7.814,0a7.814,7.814,0,1,0,7.814,7.814A7.792,7.792,0,0,0,7.814,0Zm4.317,11.608-.5.5a.343.343,0,0,1-.5,0l-1.724-1.7a.167.167,0,0,0-.213-.036,3.812,3.812,0,0,1-2.1.6,3.907,3.907,0,1,1,3.907-3.907,3.812,3.812,0,0,1-.6,2.1c-.036.071-.036.178.036.213l1.724,1.7a.426.426,0,0,1-.036.533Z"/>
    </g>
  </g>
</svg>
