<svg xmlns="http://www.w3.org/2000/svg" width="47.154" height="56.794" viewBox="0 0 47.154 56.794">
  <defs>
    <style>
      .cls-1 {
        fill: #00b8e3;
      }
    </style>
  </defs>
  <g id="Group_600" data-name="Group 600" transform="translate(23220.748 5989.868)">
    <g id="Group_528" data-name="Group 528" transform="translate(-23220.748 -5949.376)">
      <g id="Group_516" data-name="Group 516" transform="translate(0 0)">
        <g id="Group_382" data-name="Group 382" transform="translate(0)">
          <path id="Path_455" data-name="Path 455" class="cls-1" d="M64.278,358.592l-.605,2.077c10.8,1.681,12.952,4.2,12.9,6.017,0,2.141-8.46,6.059-21,6.059s-20.614-3.309-20.467-6.059c0,0-.851-3.163,13.053-6.017l-.667-2.077C34.779,361.6,32.1,363.715,32,366.686c-.165,5.385,11.859,8.209,23.576,8.209s23.576-2.817,23.576-8.209C79.153,362.765,72.21,359.662,64.278,358.592Z" transform="translate(-31.999 -358.592)"/>
        </g>
      </g>
    </g>
    <path id="_006-pin-4" data-name="006-pin-4" class="cls-1" d="M11.877,0A9.01,9.01,0,0,0,3,9.305c0,5.211,7.384,22.96,9.159,22.96s8.594-17.749,8.594-22.96A9.01,9.01,0,0,0,11.877,0Zm0,14.889A5.362,5.362,0,0,1,6.551,9.305a5.332,5.332,0,1,1,10.652,0A5.362,5.362,0,0,1,11.877,14.889Z" transform="translate(-23209.859 -5974.241)"/>
    <path id="Path_807" data-name="Path 807" class="cls-1" d="M179.168,11.01a.209.209,0,0,0,.031,0,.773.773,0,0,0,.773-.773.76.76,0,0,0-.087-.356l-.651-3.254L181.261,4.6a.774.774,0,0,0-.547-1.32H178.1L176.769.616a.805.805,0,0,0-1.383,0l-1.332,2.665h-2.614a.774.774,0,0,0-.547,1.32l2.026,2.026-.691,3.458a.773.773,0,0,0,1.221.77l2.628-1.971,2.628,1.971A.781.781,0,0,0,179.168,11.01Z" transform="translate(-23374.4 -5990.091)"/>
    <path id="Path_808" data-name="Path 808" class="cls-1" d="M179.168,11.01a.209.209,0,0,0,.031,0,.773.773,0,0,0,.773-.773.76.76,0,0,0-.087-.356l-.651-3.254L181.261,4.6a.774.774,0,0,0-.547-1.32H178.1L176.769.616a.805.805,0,0,0-1.383,0l-1.332,2.665h-2.614a.774.774,0,0,0-.547,1.32l2.026,2.026-.691,3.458a.773.773,0,0,0,1.221.77l2.628-1.971,2.628,1.971A.781.781,0,0,0,179.168,11.01Z" transform="translate(-23390.414 -5984.837)"/>
    <path id="Path_809" data-name="Path 809" class="cls-1" d="M179.168,11.01a.209.209,0,0,0,.031,0,.773.773,0,0,0,.773-.773.76.76,0,0,0-.087-.356l-.651-3.254L181.261,4.6a.774.774,0,0,0-.547-1.32H178.1L176.769.616a.805.805,0,0,0-1.383,0l-1.332,2.665h-2.614a.774.774,0,0,0-.547,1.32l2.026,2.026-.691,3.458a.773.773,0,0,0,1.221.77l2.628-1.971,2.628,1.971A.78.78,0,0,0,179.168,11.01Z" transform="translate(-23358.078 -5984.239)"/>
  </g>
</svg>
