<svg xmlns="http://www.w3.org/2000/svg" width="46" height="44.725" viewBox="0 0 46 44.725"><defs><style>.a,.c{fill:#fff;}.a,.b{fill-rule:evenodd;}.b{fill:#00b8e3;}</style></defs><g transform="translate(-2337 3952)"><g transform="translate(2338 -3951)"><path class="a" d="M31,52.725c19.272,0,23-3.623,23-22.362S50.27,8,31,8,8,11.623,8,30.362,11.726,52.725,31,52.725Z" transform="translate(-9 -9)"/><path class="b" d="M28,46.894c16.76,0,20-3.151,20-19.447S44.759,8,28,8,8,11.151,8,27.447,11.24,46.894,28,46.894Z" transform="translate(-6 -6)"/><path class="c" d="M61.725,44.408a2.766,2.766,0,0,0-1.589-.235A2.253,2.253,0,0,0,61.8,42.5a3,3,0,0,0-1.483.035,2.273,2.273,0,0,0,1.138-1.912,3.31,3.31,0,0,0-1.638.352,2.146,2.146,0,0,0,.926-2.909c-.344.2-1.934,1.807-2.195,1.994a6.8,6.8,0,0,0,1.424-2.216c.273-.7.284-1.877-.571-2.275a27.858,27.858,0,0,1-2.6,4.222c-.083-.082-.155-.188-.26-.2a4.149,4.149,0,0,1-1.246,1.759c-.024-.048-.083-.188-.166-.329-.534.786-1.933,1.877-2.384,2.546a.96.96,0,0,0,.143,1.407.741.741,0,0,1,.248,1.021,1.25,1.25,0,0,1-2.04.071.894.894,0,0,0,.5-1.515.809.809,0,0,1-1.043.342,1.912,1.912,0,0,1-.617-.376c.617.189,1.138-.175,1.068-.774a.8.8,0,0,1-1.08-.1,1.448,1.448,0,0,1-.273-1.361,3.456,3.456,0,0,1,1.024-1.637.378.378,0,0,0,.32.14c.106-.024.273-.117.4-.164a1.235,1.235,0,0,1,.96.117.679.679,0,0,1,.367.739c.641-.352.427-.938-.414-1.161a2.086,2.086,0,0,1,1.162.587,1.08,1.08,0,0,0,1.032.046c.509-.246.617-.831.475-.949a.556.556,0,0,1-.5.434,2.441,2.441,0,0,1-1.192-.282,2.885,2.885,0,0,0-1.043-.188,1.45,1.45,0,0,1,1.778.2.813.813,0,0,0,.357-.6c.166-.844-.5-1.279-1.211-1.279a.219.219,0,0,0-.313-.232.229.229,0,0,0-.071-.188.477.477,0,0,0,.06-.012,2.79,2.79,0,0,0,1.756-.646c.641-.679-.38-1.535-.012-2.2a3.585,3.585,0,0,0,1.092.411,1.6,1.6,0,0,1,.105.409c.154.751-.6.882-.4,1.678.083.352.357.481.451.915a.729.729,0,0,1-.224.562.721.721,0,0,0,.748-.984c-.083-.2-.3-.387-.3-.611.308.411.6.4,1.081.247.223-.071.248.234.105.481a.8.8,0,0,0,.416-.656.408.408,0,0,0-.521-.435c-.143.013-.44.212-.452-.07-.06-.482.711-.469.559-1.243-.1-.386-.522-.6-1.211-.68a2.781,2.781,0,0,1-.333-.363c-.379-.611-.77-.775-.993-.646-.273.14-.416.258-.641.374a1.525,1.525,0,0,0-.487.282c-.3.364-.012.927.143,1.279a1.576,1.576,0,0,1,.226,1.006c-.118.41-.818.68-1.233.762-.025,0-.048.012-.071.012v-.164a5.211,5.211,0,0,0,.308-.7c.286-.751-.13-1.056-.759-1.192a.283.283,0,0,0-.261-.036h-.012l-.012.129-.082-.024.013-.153h-.037a.287.287,0,0,0,.107-.222.344.344,0,0,0-.071-.212h.083l-.036-.035a.852.852,0,0,0-.106-.118.129.129,0,0,1-.035-.07c.024.011.035.035.071.046.036.036.1.071.107.105l.048.036v-.7l-.048.047a.52.52,0,0,0-.107.082.319.319,0,0,1-.071.048c0-.024.024-.035.035-.071a.29.29,0,0,0,.106-.105l.036-.046h-.7l.036.046a1.211,1.211,0,0,1,.106.105.182.182,0,0,0,.048.071c-.025-.012-.06-.012-.071-.047a1.207,1.207,0,0,0-.131-.082l-.035-.047v.7l.035-.036a.727.727,0,0,1,.131-.105.372.372,0,0,0,.071-.046.372.372,0,0,1-.048.07,1.28,1.28,0,0,1-.106.118l-.036.035h.106a.243.243,0,0,0-.071.211.3.3,0,0,0,.1.223h-.013l.013.152-.1.025-.012-.13h-.02a.283.283,0,0,0-.261.036c-.629.152-1.055.457-.77,1.192a5.194,5.194,0,0,0,.319.7v.105a5.766,5.766,0,0,1-2.076-1.3c-.024-.046-.059-.08-.071-.1l.013-.447A8.113,8.113,0,0,0,48.96,34.6c.4-1.068-.189-1.512-1.126-1.7a.426.426,0,0,0-.367-.046l-.037.164-.2-.012.012-.222a.326.326,0,0,1-.108.012.468.468,0,0,0,.225-.4.41.41,0,0,0-.166-.328h.166a1.087,1.087,0,0,1-.286-.376,1.268,1.268,0,0,1,.38.282V31.1c-.083.07-.261.246-.38.257A1.291,1.291,0,0,1,47.36,31h-.894c.071.081.248.246.261.352a1.44,1.44,0,0,1-.367-.257v.879a1.659,1.659,0,0,1,.367-.282,1.192,1.192,0,0,1-.261.376h.154a.4.4,0,0,0-.154.328.433.433,0,0,0,.224.4.423.423,0,0,1-.118-.012l.013.223-.2.011-.012-.164A.388.388,0,0,0,46,32.9c-.927.176-1.519.633-1.115,1.7a5.2,5.2,0,0,0,.569,1.221v.469c-.024.012-.035.047-.071.082a5.708,5.708,0,0,1-2.076,1.3v-.105a4.052,4.052,0,0,0,.321-.7c.285-.75-.143-1.055-.771-1.192a.283.283,0,0,0-.26-.036h-.013l-.012.129-.082-.024L42.5,35.6h-.012a.368.368,0,0,0,.083-.223.287.287,0,0,0-.073-.211h.107a1.5,1.5,0,0,1-.2-.223,1.168,1.168,0,0,1,.224.189v-.7a.815.815,0,0,1-.224.176,1.1,1.1,0,0,1,.2-.223h-.7a1.082,1.082,0,0,1,.178.223.734.734,0,0,1-.225-.177v.7a1.06,1.06,0,0,1,.225-.188.853.853,0,0,1-.178.223h.1a.346.346,0,0,0-.071.212.271.271,0,0,0,.107.222H42.01l.012.152-.1.025-.012-.13h-.019a.283.283,0,0,0-.26.036c-.628.152-1.055.457-.771,1.192a5.131,5.131,0,0,0,.321.7v.164c-.025,0-.06-.013-.072-.013-.414-.081-1.113-.352-1.233-.762a1.459,1.459,0,0,1,.237-1.008c.154-.353.427-.915.143-1.278a1.727,1.727,0,0,0-.5-.282c-.224-.116-.356-.234-.641-.374-.223-.129-.616.024-.993.646a2.028,2.028,0,0,1-.333.363c-.675.083-1.115.3-1.21.68-.143.775.617.764.569,1.244-.012.282-.308.081-.451.071a.417.417,0,0,0-.533.435.852.852,0,0,0,.416.655c-.143-.246-.119-.551.107-.481.486.153.759.164,1.08-.247,0,.235-.2.411-.3.611a.711.711,0,0,0,.748.984A.638.638,0,0,1,38,38.411c.083-.422.355-.551.451-.915.19-.795-.57-.926-.4-1.677a2.73,2.73,0,0,1,.107-.41A3.309,3.309,0,0,0,39.246,35c.357.67-.654,1.526-.012,2.206a2.8,2.8,0,0,0,1.755.646.478.478,0,0,1,.06.011.228.228,0,0,0-.071.187c-.19-.07-.333.037-.309.235-.735,0-1.39.435-1.222,1.279a.8.8,0,0,0,.367.6,1.447,1.447,0,0,1,1.779-.2,2.9,2.9,0,0,0-1.055.188,2.349,2.349,0,0,1-1.19.29A.571.571,0,0,1,38.841,40c-.143.118-.038.716.474.951a1.063,1.063,0,0,0,1.019-.047,2.086,2.086,0,0,1,1.163-.587c-.831.212-1.068.809-.416,1.162a.65.65,0,0,1,.357-.74,1.252,1.252,0,0,1,.961-.117c.13.047.3.129.4.164a.387.387,0,0,0,.32-.14,3.634,3.634,0,0,1,1.019,1.641,1.413,1.413,0,0,1-.273,1.361.786.786,0,0,1-1.079.1c-.071.61.451.973,1.068.775a2.142,2.142,0,0,1-.617.374.809.809,0,0,1-1.043-.34.894.894,0,0,0,.5,1.514A1.237,1.237,0,0,1,40.666,46c-.333-.481.047-.82.237-1.02a.943.943,0,0,0,.143-1.408c-.451-.656-1.85-1.747-2.384-2.545a1.7,1.7,0,0,0-.155.329A4.212,4.212,0,0,1,37.252,39.6c-.1.023-.179.128-.26.2a27.981,27.981,0,0,1-2.6-4.222c-.842.4-.83,1.6-.57,2.275a7.02,7.02,0,0,0,1.424,2.216c-.26-.187-1.838-1.794-2.195-1.994a2.156,2.156,0,0,0,.934,2.9,3.466,3.466,0,0,0-1.638-.352,2.247,2.247,0,0,0,1.138,1.912A3,3,0,0,0,32,42.5a2.262,2.262,0,0,0,1.637,1.675,2.72,2.72,0,0,0-1.564.235c.059.656.818,1.219,1.719,1.361a2.129,2.129,0,0,0-1.424.7,1.85,1.85,0,0,0,1.565.739,1.509,1.509,0,0,0-.533.34.091.091,0,0,0-.082-.035.1.1,0,0,0-.036.105v.024a.31.31,0,0,0-.119.175,1.433,1.433,0,0,0-.178.318.531.531,0,0,1,.048.035.222.222,0,0,0,.049.188.318.318,0,0,0-.072.14l-.438-.164a1.149,1.149,0,0,0,.261.915c.154.176.333.153.285.211l.475.282a.283.283,0,0,0,.378.129V49.9a.431.431,0,0,0,.3.4c-.037.151.035.245.248.315L36.3,54.868a.338.338,0,0,0,.154.446.283.283,0,0,0-.071.2.13.13,0,0,1,.224.071c.036.094-.154.422.13.646a.435.435,0,0,0,.273.481c0,.105.1.434.106.551-.119.176-.416.447-.38.739a.335.335,0,0,0,.286.329.443.443,0,0,0,.474.563.432.432,0,0,0,.438.4,2.086,2.086,0,0,0,.415.259c-.178.2-.059.47.26.551a.379.379,0,0,0,.3.258.326.326,0,0,0,.4.116.307.307,0,0,0,.083-.4.371.371,0,0,0-.012-.353.365.365,0,0,0-.129-.481.973.973,0,0,0-.073-.364c.248-.153.559-.34.664-.41a4.1,4.1,0,0,1,2.065-.856c.2-.013.569-.025.77-.013.322.036.749.129,1.009-.07a.26.26,0,0,0,.106-.223c-.036-.188-.248-.364-.32-.539-.025-.047-.047-.129-.083-.2a.932.932,0,0,0,.559-.047.752.752,0,0,0,.449-.656c-.26.118-.9.293-.972-.352-.072-.564.438-1.044,1.222-.833.534.14,1.316,1.266.6,1.759-.344.234-.894.457-.819,1.081a1.037,1.037,0,0,1,.939-.376,10.837,10.837,0,0,1-1.662.809c-.533.317-.938.832-1.353.844-.332.024-.51-.364-.189-.657a.822.822,0,0,0-.854.506.734.734,0,0,0,.248.949.973.973,0,0,0-.534,1.162c.131.469.6.469.416,1.056a.66.66,0,0,0,.509-.5.993.993,0,0,1,.155-.446,1.178,1.178,0,0,0,.652,1.114,1.065,1.065,0,0,0,1.257-.189,1.39,1.39,0,0,0,1.291.844,1.448,1.448,0,0,0,.711-.222,1.8,1.8,0,0,0,.842.856,1.763,1.763,0,0,0,.854-.856,1.409,1.409,0,0,0,.711.223,1.39,1.39,0,0,0,1.291-.844,1.064,1.064,0,0,0,1.257.187,1.178,1.178,0,0,0,.652-1.113.868.868,0,0,1,.167.446.661.661,0,0,0,.5.5c-.178-.586.3-.586.415-1.055a.993.993,0,0,0-.521-1.162.735.735,0,0,0,.237-.949.818.818,0,0,0-.854-.5c.309.293.143.668-.19.656-.414-.012-.818-.527-1.352-.844a10.886,10.886,0,0,1-1.66-.809,1,1,0,0,1,.937.374c.072-.61-.462-.844-.818-1.079-.711-.5.072-1.619.617-1.759.771-.212,1.281.269,1.211.831-.1.646-.712.482-.993.353a.771.771,0,0,0,.475.658,1.013,1.013,0,0,0,.724,0c-.012.07-.025.128-.025.151-.046.551-.355.61-.248.831.143.177,1.092.142,1.353.189.451.059.829.234,1.269.317a9.235,9.235,0,0,1,1.446.282c.273.117.6.34.867.481.414.071.355.235.616.235.238,0,.333-.2.641-.283.214-.048.452.036.665-.035.154-.035.224-.2.367-.282.165-.105.4-.105.569-.246a.342.342,0,0,0,.1-.3,2.007,2.007,0,0,0,.71-.937A.189.189,0,0,0,59,56.754v-.031a.328.328,0,0,0,.143-.269A.44.44,0,0,0,59,56.137V56.1a.268.268,0,0,0-.071-.164A1.928,1.928,0,0,0,57.5,54.424v-.035h-.012a.043.043,0,0,0-.047-.048.906.906,0,0,1-.236-.364,2.471,2.471,0,0,1,.414.3V53.3a2.047,2.047,0,0,1-.416.293.993.993,0,0,1,.3-.41h-.993a.993.993,0,0,1,.3.41,2.383,2.383,0,0,1-.416-.293v.973a2.054,2.054,0,0,1,.414-.3.972.972,0,0,1-.3.41l.038.012a1.948,1.948,0,0,0-1.49,1.528.225.225,0,0,0-.083.165v.034c-.083.093-.13.188-.048.293a.364.364,0,0,0,.142.269v.034a.169.169,0,0,0,.155.175,1.766,1.766,0,0,0,.118.269l.012-.011a.677.677,0,0,1-.476.447,4.3,4.3,0,0,1-1.9-.4,1.719,1.719,0,0,1-.819-.483.51.51,0,0,1-.105-.482,1.151,1.151,0,0,0,.332.258.863.863,0,0,1,.048-.246.783.783,0,0,0,.7.328.976.976,0,0,1-.178-.894.764.764,0,0,0,1.352-.246.428.428,0,0,1-.641-.2c-.107-.3.237-1.009-.071-1.573a1.458,1.458,0,0,0-1.187-.774.512.512,0,0,0,.083-.258,1.045,1.045,0,0,1-1.376-.434,1.168,1.168,0,0,0,.475.071,2.063,2.063,0,0,1-.118-2.284c.047-.036.071-.071.118-.082.119.234.474.234.653.434a.9.9,0,0,1,.165-.141,13.774,13.774,0,0,0,.083,1.419c.06.47.521.422.748.621.273-.3.76-.281.687-.795s-.178-.973-.19-1.325c.154.317.451,1.49.57,1.828.2.5.688.34.961.54.178-.352.628-.446.451-.973-.048-.129-.795-1.677-.9-1.97.273.386.984,1.748,1.209,2.123.237.4.7.2,1.021.3.06-.281.5-.621.178-1.113-.391-.658-1.341-1.807-1.39-1.971.19.177,1.649,1.96,1.755,2.065.344.293.843.071,1.127.071,0-.329.261-.7-.119-1.081-.355-.328-1.162-.894-1.329-1.092A8.414,8.414,0,0,0,58.816,49.9a1.353,1.353,0,0,0,1.151-.2c-.2-.611.071-.881-1.341-1.467,1.222.435,1.756.223,2.195-.117a1.729,1.729,0,0,0-.961-.915,1.779,1.779,0,0,0,1.565-.739,2.12,2.12,0,0,0-1.446-.7A1.916,1.916,0,0,0,61.725,44.408ZM41.3,52.662a.516.516,0,0,0,.081.258,1.443,1.443,0,0,0-1.173.775c-.333.564.024,1.279-.072,1.572a.427.427,0,0,1-.641.2.764.764,0,0,0,1.354.247.986.986,0,0,1-.166.894.747.747,0,0,0,.688-.329.882.882,0,0,1,.047.247,1,1,0,0,0,.333-.258.873.873,0,0,1,.012.435c-.131.08-.273.164-.476.269a5.328,5.328,0,0,1-1.353.469.906.906,0,0,1-.959-.529c-.119-.4-.451-.527-.711-.281-.072-.047-.261-.081-.333.035a.984.984,0,0,0-.19-.282.411.411,0,0,0-.166-.527c-.024-.386-.273-.386-.355-.527-.047-.082-.047-.188.071-.2a.219.219,0,0,0-.167-.1.369.369,0,0,0-.248-.447l-1.741-3.54h-.016l-.071-.164v-.019l-.2-.4a.248.248,0,0,0-.082-.4v-.036a.214.214,0,0,0,.013-.081c.047-.013.118-.024.178-.035a7.724,7.724,0,0,0,1.564-1.043c-.189.2-.972.761-1.327,1.092-.325.31-.2.631-.145.906l.089.187c.3.029.738.193,1.064-.072.1-.094,1.554-1.887,1.756-2.065-.083.164-1.008,1.314-1.422,1.97-.3.5.154.833.2,1.115.332-.105.782.1,1.02-.3s.948-1.747,1.21-2.123c-.1.3-.854,1.829-.9,1.971-.178.527.273.621.451.973.273-.188.77-.047.96-.54.118-.34.415-1.514.569-1.829-.024.34-.118.809-.189,1.326s.415.5.675.795c.248-.211.7-.151.771-.621a13.8,13.8,0,0,0,.083-1.42,1.97,1.97,0,0,1,.178.141c.167-.2.521-.2.641-.434.047.013.071.048.119.082A2.068,2.068,0,0,1,42.2,52.3a1.516,1.516,0,0,0,.474-.071,1.031,1.031,0,0,1-1.376.435Zm2.618,8.164c-.414,0-.711-.257-.5-.621a.658.658,0,0,0,.51.257C43.918,60.627,43.918,60.686,43.918,60.826Zm6.369-.621c.215.363-.082.621-.5.621a1.291,1.291,0,0,0-.037-.364.686.686,0,0,0,.535-.257Zm-5.218-1.761a4.8,4.8,0,0,0-.771,1.279c-.367-.035-.3-.481-.178-.7.248-.446,1.256-1.032,1.756-1.619a7.576,7.576,0,0,1-.805,1.045Zm1.092.795a8.656,8.656,0,0,0-.285,2.483c-.711-.364-.308-1.772-.035-2.384a9.963,9.963,0,0,0,.735-2.533c.221.5-.26,1.91-.414,2.438Zm1.662,2.483a8.281,8.281,0,0,0-.286-2.483c-.143-.527-.641-1.937-.415-2.428a9.932,9.932,0,0,0,.735,2.533c.275.616.678,2.023-.033,2.387Zm1.756-2.7c.118.223.189.669-.179.7a5.106,5.106,0,0,0-.759-1.278,7.73,7.73,0,0,1-.819-1.043c.5.586,1.508,1.172,1.757,1.618Zm-.143-20.5a1.974,1.974,0,0,1-1.092-.14,1.291,1.291,0,0,0,.689.54,2.045,2.045,0,0,1-1.732.621.906.906,0,0,0,.76.3,6.963,6.963,0,0,0-1.2,3.178,6.9,6.9,0,0,0-1.187-3.178.883.883,0,0,0,.747-.3,2.094,2.094,0,0,1-1.719-.621,1.278,1.278,0,0,0,.687-.54,2.069,2.069,0,0,1-1.092.14c.487-.105,1.235-.492,1.269-.844a4.8,4.8,0,0,1-1.66.188,5.205,5.205,0,0,0,2.36-1.185c.367.013.83.024,1.2.013a5.032,5.032,0,0,0,2.349,1.172,4.72,4.72,0,0,1-1.649-.186c.035.35.783.737,1.268.844Z" transform="translate(-24.994 -25.92)"/></g></g></svg>