<svg xmlns="http://www.w3.org/2000/svg" width="52.006" height="39.925" viewBox="0 0 52.006 39.925">
  <defs>
    <style>
      .cls-1 {
        fill: #00b8e3;
      }
    </style>
  </defs>
  <g id="Group_600" data-name="Group 600" transform="translate(-24.34 -27.729)">
    <path id="Subtraction_4" data-name="Subtraction 4" class="cls-1" d="M23653.689,6426.737h-2.377a2.316,2.316,0,0,1-2.156-2.264l-.861-7.807h-1.213a1.014,1.014,0,0,1-.809-.428,1.356,1.356,0,0,1-.26-.986,63.8,63.8,0,0,1,1.848-8.936,4.461,4.461,0,0,1,.219-.536,2.8,2.8,0,0,1,2.428-1.738,1.571,1.571,0,0,1,.371.04h3.238a1.43,1.43,0,0,1,.359-.04,2.38,2.38,0,0,1,1.758.855c-1.07,4.178-1.91,9.9-2.068,11.006l0,.026a2.127,2.127,0,0,0,.4,1.5,1.544,1.544,0,0,0,1.23.647h.754l-.707,6.429A2.289,2.289,0,0,1,23653.689,6426.737Z" transform="translate(-23614.154 -6361.321)"/>
    <path id="Subtraction_2" data-name="Subtraction 2" class="cls-1" d="M23663.656,6420.581h-1.824a1.776,1.776,0,0,1-1.656-1.746l-.426-3.873h1.316a1.279,1.279,0,0,0,1.027-.541,1.728,1.728,0,0,0,.332-1.253.259.259,0,0,0,0-.029,62.158,62.158,0,0,0-1.846-9.886,1.672,1.672,0,0,1,.639-.128,1.193,1.193,0,0,1,.283.03h2.494a1.1,1.1,0,0,1,.277-.031c.475,0,1.373.23,2.045,1.771a32.349,32.349,0,0,1,1.42,6.849,1.038,1.038,0,0,1-.2.76.792.792,0,0,1-.625.333h-.932l-.66,6.023A1.774,1.774,0,0,1,23663.656,6420.581Z" transform="translate(-23591.398 -6358.4)"/>
    <path id="Subtraction_3" data-name="Subtraction 3" class="cls-1" d="M23668.531,6426.735h-2.371a2.307,2.307,0,0,1-2.156-2.264l-.707-6.4h.7a1.55,1.55,0,0,0,1.23-.647,2.071,2.071,0,0,0,.4-1.5l0-.021a79.873,79.873,0,0,0-1.984-11.091,2.411,2.411,0,0,1,1.723-.772,1.542,1.542,0,0,1,.365.039h3.238a1.446,1.446,0,0,1,.354-.039c.619,0,1.791.3,2.67,2.3,1.2,2.761,1.842,8.846,1.848,8.906a1.384,1.384,0,0,1-.26.992,1.047,1.047,0,0,1-.814.428h-1.213l-.861,7.837A2.288,2.288,0,0,1,23668.531,6426.735Z" transform="translate(-23604.996 -6361.321)"/>
    <path id="Subtraction_1" data-name="Subtraction 1" class="cls-1" d="M23651.914,6420.582h-1.824a1.792,1.792,0,0,1-1.664-1.747l-.658-6h-.934a.8.8,0,0,1-.629-.327,1.081,1.081,0,0,1-.2-.76,49.271,49.271,0,0,1,1.426-6.873,3.471,3.471,0,0,1,.172-.411,2.158,2.158,0,0,1,1.867-1.336,1.212,1.212,0,0,1,.283.03h2.494a1.1,1.1,0,0,1,.277-.031,1.63,1.63,0,0,1,.648.142,95.657,95.657,0,0,0-1.9,9.868c0,.025-.006.04-.006.042a1.736,1.736,0,0,0,.332,1.248,1.292,1.292,0,0,0,1.023.541H23654l-.426,3.9A1.763,1.763,0,0,1,23651.914,6420.582Z" transform="translate(-23621.654 -6358.4)"/>
    <g id="Group_388" data-name="Group 388" transform="translate(42.346 39.721)">
      <g id="Group_201" data-name="Group 201" transform="translate(0 0)">
        <path id="Path_454" data-name="Path 454" class="cls-1" d="M175.99,173.747s-.779-7.519-2.277-10.955S170,160,170,160h-3.987s-1.99-.552-3.444,2.091a5.145,5.145,0,0,0-.273.657c-1.233,3.437-2.28,11-2.28,11a1.717,1.717,0,0,0,.323,1.218,1.259,1.259,0,0,0,1,.527h1.493l1.059,9.6a2.849,2.849,0,0,0,2.656,2.788h2.92a2.834,2.834,0,0,0,2.651-2.748l1.061-9.645h1.493a1.259,1.259,0,0,0,1-.527A1.7,1.7,0,0,0,175.99,173.747Z" transform="translate(-160.001 -159.955)"/>
      </g>
    </g>
    <ellipse id="Ellipse_22" data-name="Ellipse 22" class="cls-1" cx="4.065" cy="4.201" rx="4.065" ry="4.201" transform="translate(34.901 33.13)"/>
    <ellipse id="Ellipse_23" data-name="Ellipse 23" class="cls-1" cx="3.125" cy="3.23" rx="3.125" ry="3.23" transform="translate(26.7 37.3)"/>
    <ellipse id="Ellipse_24" data-name="Ellipse 24" class="cls-1" cx="4.065" cy="4.201" rx="4.065" ry="4.201" transform="translate(57.999 33.13)"/>
    <ellipse id="Ellipse_25" data-name="Ellipse 25" class="cls-1" cx="3.125" cy="3.23" rx="3.125" ry="3.23" transform="translate(68 37.3)"/>
    <ellipse id="Ellipse_8" data-name="Ellipse 8" class="cls-1" cx="5" cy="5.168" rx="5" ry="5.168" transform="translate(45.301 27.729)"/>
  </g>
</svg>
