<svg id="viber_1_" data-name="viber (1)" xmlns="http://www.w3.org/2000/svg" width="30" height="30" viewBox="0 0 30 30">
  <defs>
    <style>
      .cls-1 {
        fill: #7d3daf;
      }

      .cls-2 {
        fill: #fff;
      }
    </style>
  </defs>
  <rect id="Rectangle_106" data-name="Rectangle 106" class="cls-1" width="30" height="30" rx="15"/>
  <g id="Group_153" data-name="Group 153" transform="translate(6.061 5.761)">
    <path id="Path_218" data-name="Path 218" class="cls-2" d="M94.464,76.359l-.005-.021a6.164,6.164,0,0,0-4.161-4l-.02,0a23.125,23.125,0,0,0-8.7,0l-.021,0a6.166,6.166,0,0,0-4.161,4l0,.021a17.037,17.037,0,0,0,0,7.339l0,.021a6.216,6.216,0,0,0,3.932,3.945v1.946a.782.782,0,0,0,1.347.542l1.972-2.05c.428.024.856.037,1.284.037a23.2,23.2,0,0,0,4.352-.413l.02,0a6.164,6.164,0,0,0,4.161-4l.005-.021A17.037,17.037,0,0,0,94.464,76.359ZM92.9,83.345a4.662,4.662,0,0,1-2.937,2.813,21.556,21.556,0,0,1-4.63.374.11.11,0,0,0-.082.033l-1.44,1.478-1.532,1.572a.179.179,0,0,1-.309-.124V86.267a.111.111,0,0,0-.09-.109h0a4.663,4.663,0,0,1-2.937-2.813,15.461,15.461,0,0,1,0-6.633A4.663,4.663,0,0,1,81.883,73.9a21.538,21.538,0,0,1,8.083,0A4.66,4.66,0,0,1,92.9,76.712,15.444,15.444,0,0,1,92.9,83.345Z" transform="translate(-76.986 -71.916)"/>
    <path id="Path_219" data-name="Path 219" class="cls-2" d="M156.518,148.909c-.18-.055-.352-.092-.512-.158a11.627,11.627,0,0,1-4.382-2.928,11.371,11.371,0,0,1-1.676-2.565c-.215-.437-.4-.892-.581-1.343a1.165,1.165,0,0,1,.341-1.147,2.694,2.694,0,0,1,.9-.678.579.579,0,0,1,.725.172,9.345,9.345,0,0,1,1.121,1.569.747.747,0,0,1-.209,1.012c-.085.058-.162.125-.241.19a.791.791,0,0,0-.182.192.526.526,0,0,0-.035.462,4.179,4.179,0,0,0,2.347,2.6,1.194,1.194,0,0,0,.6.146c.368-.043.487-.446.744-.657a.7.7,0,0,1,.845-.037c.271.172.534.356.8.542a9.114,9.114,0,0,1,.749.57.594.594,0,0,1,.178.735,2.486,2.486,0,0,1-1.068,1.177,2.576,2.576,0,0,1-.462.147C156.337,148.854,156.674,148.861,156.518,148.909Z" transform="translate(-145.027 -135.992)"/>
    <path id="Path_220" data-name="Path 220" class="cls-2" d="M221.749,131.457a4.4,4.4,0,0,1,4.321,3.635c.065.364.088.737.117,1.107a.26.26,0,0,1-.244.305c-.173,0-.251-.143-.263-.3-.022-.308-.038-.617-.08-.922a3.865,3.865,0,0,0-3.113-3.231c-.241-.043-.488-.054-.733-.08-.155-.016-.357-.026-.391-.218a.264.264,0,0,1,.261-.3c.042,0,.084,0,.126,0C223.912,131.517,221.707,131.457,221.749,131.457Z" transform="translate(-212.805 -127.928)"/>
    <path id="Path_221" data-name="Path 221" class="cls-2" d="M231.346,154.078a.989.989,0,0,1-.021.15.246.246,0,0,1-.463.025.654.654,0,0,1-.026-.209,2.621,2.621,0,0,0-.331-1.315,2.446,2.446,0,0,0-1.026-.963,2.952,2.952,0,0,0-.818-.251c-.123-.02-.248-.033-.372-.05a.235.235,0,0,1-.223-.264.233.233,0,0,1,.259-.23,3.4,3.4,0,0,1,1.417.369,2.866,2.866,0,0,1,1.56,2.227c.007.045.018.09.021.136.008.113.014.225.022.373C231.342,154.1,231.337,153.93,231.346,154.078Z" transform="translate(-219.115 -146.288)"/>
    <path id="Path_222" data-name="Path 222" class="cls-2" d="M235.219,172.845a.267.267,0,0,1-.3-.263,2.725,2.725,0,0,0-.051-.346.972.972,0,0,0-.359-.563.936.936,0,0,0-.292-.141c-.133-.038-.271-.028-.4-.06a.247.247,0,0,1-.2-.287.26.26,0,0,1,.274-.209,1.487,1.487,0,0,1,1.524,1.482.686.686,0,0,1,0,.21.215.215,0,0,1-.193.177C235.038,172.848,235.3,172.839,235.219,172.845Z" transform="translate(-224.333 -165.107)"/>
  </g>
</svg>
