<svg xmlns="http://www.w3.org/2000/svg" width="30" height="30" viewBox="0 0 30 30">
  <defs>
    <style>
      .cls-1 {
        fill: #4b76a9;
      }
    </style>
  </defs>
  <path id="VK" class="cls-1" d="M15,0A15,15,0,1,0,30,15,15,15,0,0,0,15,0Zm6.5,16.983q.177.219.843.854h.01l.01.01.01.011.021.021a10.37,10.37,0,0,1,1.988,2.3,1.375,1.375,0,0,1,.068.13,1.3,1.3,0,0,1,.073.276.812.812,0,0,1-.005.354.514.514,0,0,1-.26.286,1.2,1.2,0,0,1-.614.13l-2.664.042a1.167,1.167,0,0,1-.583-.052,2.549,2.549,0,0,1-.541-.229l-.208-.125a4.872,4.872,0,0,1-.729-.666q-.417-.448-.713-.807a3.463,3.463,0,0,0-.635-.6.66.66,0,0,0-.588-.161.821.821,0,0,0-.083.037.886.886,0,0,0-.177.151,1.332,1.332,0,0,0-.224.307,2.135,2.135,0,0,0-.177.541,3.414,3.414,0,0,0-.068.807,1.071,1.071,0,0,1-.037.286.7.7,0,0,1-.078.192l-.042.052a.824.824,0,0,1-.551.229h-1.2a4.718,4.718,0,0,1-1.519-.172,5.817,5.817,0,0,1-1.369-.552,12.3,12.3,0,0,1-1.072-.687,6.2,6.2,0,0,1-.734-.6L9.4,19.1q-.1-.1-.286-.312t-.744-.947q-.562-.739-1.1-1.572t-1.275-2.2q-.734-1.363-1.358-2.831a.827.827,0,0,1-.063-.281A.337.337,0,0,1,4.6,10.79l.042-.062a.724.724,0,0,1,.593-.2l2.852-.021a1.114,1.114,0,0,1,.239.068.7.7,0,0,1,.167.088l.052.031a.689.689,0,0,1,.25.333q.208.521.479,1.077t.427.848l.166.3q.3.624.583,1.082a5.338,5.338,0,0,0,.5.713,2.461,2.461,0,0,0,.432.4.659.659,0,0,0,.354.146.778.778,0,0,0,.281-.052.185.185,0,0,0,.052-.052,2.038,2.038,0,0,0,.125-.229,1.687,1.687,0,0,0,.141-.489q.047-.3.1-.843a8.091,8.091,0,0,0,0-1.3,4.875,4.875,0,0,0-.094-.76,2.013,2.013,0,0,0-.146-.479l-.063-.125a1.277,1.277,0,0,0-.885-.448q-.136-.02.052-.249a1.408,1.408,0,0,1,.4-.312,6.846,6.846,0,0,1,2.488-.25,6.937,6.937,0,0,1,1.405.135,1.206,1.206,0,0,1,.349.141.56.56,0,0,1,.214.249,1.648,1.648,0,0,1,.109.333,2.4,2.4,0,0,1,.037.474q0,.3-.01.572t-.026.734q-.016.463-.016.859c0,.077,0,.222-.01.437s-.009.382-.005.5.016.259.036.422a1.144,1.144,0,0,0,.12.406.687.687,0,0,0,.234.255c.055.014.114.028.177.042s.152-.024.27-.115a3.8,3.8,0,0,0,.4-.359,5.322,5.322,0,0,0,.541-.7q.322-.473.708-1.119a16.966,16.966,0,0,0,1.114-2.342.705.705,0,0,1,.1-.182.46.46,0,0,1,.114-.11l.042-.031.052-.026a.586.586,0,0,1,.135-.031.853.853,0,0,1,.208,0l3-.021a1.647,1.647,0,0,1,.666.026.609.609,0,0,1,.323.172l.063.1q.239.667-1.561,3.06-.25.334-.677.885a7.78,7.78,0,0,0-.936,1.364A.8.8,0,0,0,21.5,16.983Z"/>
</svg>
