<svg xmlns="http://www.w3.org/2000/svg" width="30" height="30" viewBox="0 0 30 30">
  <defs>
    <style>
      .cls-1 {
        fill: #20b93a;
      }
    </style>
  </defs>
  <path id="Wapp" class="cls-1" d="M-2874-7252a15,15,0,0,1,15-15,15,15,0,0,1,15,15,15,15,0,0,1-15,15A15,15,0,0,1-2874-7252Zm6.492-1.072a9.1,9.1,0,0,0,1.218,4.558l-1.294,4.724,4.833-1.268a9.107,9.107,0,0,0,4.356,1.109h0a9.129,9.129,0,0,0,9.117-9.115,9.059,9.059,0,0,0-2.668-6.449,9.056,9.056,0,0,0-6.449-2.674A9.129,9.129,0,0,0-2867.509-7253.073Zm9.113,7.584a7.569,7.569,0,0,1-3.856-1.057l-.277-.164-2.868.753.766-2.8-.18-.286a7.56,7.56,0,0,1-1.159-4.032,7.588,7.588,0,0,1,7.581-7.576,7.515,7.515,0,0,1,5.356,2.223,7.526,7.526,0,0,1,2.218,5.359,7.588,7.588,0,0,1-7.577,7.577Zm-3.832-11.509a2.557,2.557,0,0,0-.8,1.9,4.439,4.439,0,0,0,.93,2.356,10.148,10.148,0,0,0,3.892,3.439,13.01,13.01,0,0,0,1.3.479,3.113,3.113,0,0,0,1.434.09,2.344,2.344,0,0,0,1.538-1.082,1.9,1.9,0,0,0,.133-1.084c-.057-.095-.208-.151-.437-.266s-1.347-.665-1.557-.74-.36-.115-.512.113-.588.741-.721.893-.266.172-.493.057a6.162,6.162,0,0,1-1.832-1.131,6.84,6.84,0,0,1-1.267-1.577c-.133-.228-.015-.352.1-.464s.228-.268.342-.4a1.531,1.531,0,0,0,.227-.379.419.419,0,0,0-.019-.4c-.057-.114-.513-1.235-.7-1.691-.163-.392-.329-.392-.461-.391h-.051c-.133-.006-.285-.007-.437-.007A.838.838,0,0,0-2862.228-7257Z" transform="translate(2874.001 7267.001)"/>
</svg>
