<svg id="skype_1_" data-name="skype (1)" xmlns="http://www.w3.org/2000/svg" width="30" height="30" viewBox="0 0 30 30">
  <defs>
    <style>
      .cls-1 {
        fill: #1b92d0;
      }

      .cls-2 {
        fill: #fff;
      }
    </style>
  </defs>
  <circle id="Ellipse_19" data-name="Ellipse 19" class="cls-1" cx="15" cy="15" r="15" transform="translate(0 0)"/>
  <path id="Path_217" data-name="Path 217" class="cls-2" d="M120.176,115.971a7.911,7.911,0,0,0-7.815-9.147,8.034,8.034,0,0,0-1.234.1,4.782,4.782,0,0,0-6.58,6.581,8.061,8.061,0,0,0-.1,1.234,7.919,7.919,0,0,0,9.146,7.815,4.782,4.782,0,0,0,6.58-6.581Zm-4.059,2.363a3.281,3.281,0,0,1-1.469,1.129,5.855,5.855,0,0,1-2.283.406,5.459,5.459,0,0,1-2.613-.556,3.388,3.388,0,0,1-1.19-1.07,2.323,2.323,0,0,1-.46-1.309.868.868,0,0,1,.282-.648,1.006,1.006,0,0,1,.718-.27.9.9,0,0,1,.6.211,1.6,1.6,0,0,1,.411.612,3.835,3.835,0,0,0,.434.779,1.719,1.719,0,0,0,.651.51,2.565,2.565,0,0,0,1.108.2,2.645,2.645,0,0,0,1.534-.407,1.182,1.182,0,0,0,.582-1,1.007,1.007,0,0,0-.31-.771,2.07,2.07,0,0,0-.82-.459q-.508-.161-1.364-.341a10.673,10.673,0,0,1-1.924-.585,3.119,3.119,0,0,1-1.239-.918,2.282,2.282,0,0,1-.46-1.452,2.366,2.366,0,0,1,.485-1.467,3.036,3.036,0,0,1,1.4-.984,6.1,6.1,0,0,1,2.144-.342,5.689,5.689,0,0,1,1.7.227,3.73,3.73,0,0,1,1.2.6,2.584,2.584,0,0,1,.7.794,1.744,1.744,0,0,1,.222.817.951.951,0,0,1-.282.668.934.934,0,0,1-.7.3.848.848,0,0,1-.586-.181,2.313,2.313,0,0,1-.424-.571,2.537,2.537,0,0,0-.687-.859,2.11,2.11,0,0,0-1.283-.3,2.367,2.367,0,0,0-1.325.333.942.942,0,0,0-.5.788.756.756,0,0,0,.166.489,1.4,1.4,0,0,0,.468.36,3.258,3.258,0,0,0,.609.24q.31.088,1.028.256.9.194,1.631.431a5.12,5.12,0,0,1,1.247.576,2.425,2.425,0,0,1,.81.864,2.592,2.592,0,0,1,.291,1.278A2.783,2.783,0,0,1,116.117,118.334Z" transform="translate(-97.261 -99.487)"/>
</svg>
