<svg xmlns="http://www.w3.org/2000/svg" width="30.001" height="30" viewBox="0 0 30.001 30">
  <defs>
    <style>
      .cls-1 {
        fill: red;
      }
    </style>
  </defs>
  <path id="Y-tube" class="cls-1" d="M-2874-7252a15,15,0,0,1,15-15,15,15,0,0,1,15,15,15,15,0,0,1-15,15A15,15,0,0,1-2874-7252Zm9.077-5.984a2.18,2.18,0,0,0-2.223,2.022,18.5,18.5,0,0,0-.237,3.684,26.886,26.886,0,0,0,.213,3.808,2.355,2.355,0,0,0,2.347,2.112c1.5.124,4.507.186,5.993.186,1.437,0,4.671-.075,6.108-.237a2.17,2.17,0,0,0,2.1-2.1,27.425,27.425,0,0,0,.212-3.785,29.056,29.056,0,0,0-.212-3.521,2.277,2.277,0,0,0-2.2-2.185c-1.492-.135-4.722-.211-6.219-.211A52.511,52.511,0,0,0-2864.923-7257.984Zm4.222,3.3,4.645,2.415-4.645,2.464Z" transform="translate(2874 7267)"/>
</svg>
