<svg xmlns="http://www.w3.org/2000/svg" xmlns:xlink="http://www.w3.org/1999/xlink" width="29.999" height="30.001" viewBox="0 0 29.999 30.001">
  <defs>
    <style>
      .cls-1 {
        fill: url(#linear-gradient);
      }
    </style>
    <linearGradient id="linear-gradient" x1="0.282" y1="0.066" x2="0.854" y2="0.863" gradientUnits="objectBoundingBox">
      <stop offset="0" stop-color="#5d4ecb"/>
      <stop offset="0.493" stop-color="#c62c8a"/>
      <stop offset="1" stop-color="#f77e18"/>
    </linearGradient>
  </defs>
  <path id="INST" class="cls-1" d="M-2874-7252a15,15,0,0,1,15-15,15,15,0,0,1,15,15,15,15,0,0,1-15,15A15,15,0,0,1-2874-7252Zm5.663-3.976v7.964a5.359,5.359,0,0,0,5.354,5.353h7.892a5.358,5.358,0,0,0,5.353-5.353v-7.964a5.36,5.36,0,0,0-5.353-5.353h-7.892A5.36,5.36,0,0,0-2868.337-7255.976Zm5.354,11.546a3.586,3.586,0,0,1-3.582-3.582v-7.964a3.584,3.584,0,0,1,3.582-3.58h7.892a3.584,3.584,0,0,1,3.58,3.58v7.964a3.585,3.585,0,0,1-3.58,3.582Zm-.894-7.6a4.834,4.834,0,0,0,4.853,4.8,4.834,4.834,0,0,0,4.855-4.8,4.835,4.835,0,0,0-4.855-4.8A4.835,4.835,0,0,0-2863.876-7252.027Zm8.652-5a1.143,1.143,0,0,0,1.144,1.142,1.142,1.142,0,0,0,1.142-1.142,1.144,1.144,0,0,0-1.142-1.144A1.144,1.144,0,0,0-2855.225-7257.026Zm-6.885,5a3.063,3.063,0,0,1,3.086-3.035,3.064,3.064,0,0,1,3.088,3.035,3.064,3.064,0,0,1-3.088,3.035A3.063,3.063,0,0,1-2862.109-7252.027Z" transform="translate(2874 7267)"/>
</svg>
