<svg xmlns="http://www.w3.org/2000/svg" width="50" height="54.543" viewBox="0 0 50 54.543"><defs><style>.a{fill:#f8f8f8;}.b{fill:#00b8e3;}</style></defs><g transform="translate(-265 -37.457)"><g transform="translate(2 8.457)"><rect class="a" width="50" height="54.543" transform="translate(263 29)"/><g transform="translate(267.406 64.338)"><g transform="translate(0.001)"><g transform="translate(0)"><g transform="translate(0 0)"><path class="b" d="M59.5,358.592l-.516,1.832c9.2,1.482,11.033,3.707,10.988,5.307,0,1.888-7.207,5.344-17.885,5.344s-17.56-2.918-17.435-5.344c0,0-.725-2.789,11.119-5.307l-.568-1.832c-10.832,2.654-13.113,4.519-13.2,7.138-.141,4.75,10.1,7.24,20.083,7.24s20.083-2.485,20.083-7.24C72.167,362.272,66.253,359.536,59.5,358.592Z" transform="translate(-31.999 -358.592)"/></g></g></g></g></g><g transform="translate(24320.42 2511.666) rotate(-8)"><g transform="translate(-23459.115 -5785.167)"><path class="b" d="M2.912-7.209a1.163,1.163,0,0,0-1.167,1.02v30.1a1.167,1.167,0,0,0,1.167.684.958.958,0,0,0,1.013-.684v-30.1a.993.993,0,0,0-1.013-1.02Z" transform="translate(-1.745 7.252)"/><g transform="translate(3.558 -2.089)"><path class="b" d="M17.208,2.651C13.741,2.651,14.236,1,9.944,1S4,5.953,4,5.953V19.161a5.249,5.249,0,0,1,4.953-3.3c4.458,0,4.623,1.651,8.255,1.651,5.448,0,6.6-3.3,6.6-3.3V1A13.447,13.447,0,0,1,17.208,2.651Zm4.953,4.127c-.33.33-1.321.66-3.3.991V4.137a14.493,14.493,0,0,0,3.3-.66ZM5.651,12.392V8.1a3.969,3.969,0,0,1,3.3-1.816V2.816a2.094,2.094,0,0,1,.991-.165,7.393,7.393,0,0,1,3.467.66c.165.165.33.33.5.33V7.274a8.286,8.286,0,0,0,3.3.66,5.09,5.09,0,0,0,1.651-.165v4.293c-.5,0-.991.165-1.651.165a5.318,5.318,0,0,1-3.3-.825v3.8a11.207,11.207,0,0,0-4.953-.991V10.576A6.406,6.406,0,0,0,5.651,12.392Zm13.208,3.3V12.062a8.125,8.125,0,0,0,3.3-1.321v2.972A4.452,4.452,0,0,1,18.859,15.694Z" transform="translate(-4 -1)"/><path class="b" d="M11.953,9.153V5.191A12.019,12.019,0,0,0,7,4.2V8.493A7.053,7.053,0,0,1,11.953,9.153Z" transform="translate(-2.047 1.083)"/></g></g></g></g></svg>