<svg xmlns="http://www.w3.org/2000/svg" width="50" height="60" viewBox="0 0 50 60"><defs><style>.a{fill:#f8f8f8;}.b{fill:#00b8e3;}</style></defs><g transform="translate(-146.723 -32)"><path class="a" d="M0,0H50V60H0Z" transform="translate(146.723 32)"/><g transform="translate(23371.748 6025.17)"><path class="b" d="M10.381,0A7.3,7.3,0,0,0,3,7.363C3,11.486,9.14,25.53,10.616,25.53s7.146-14.044,7.146-18.167A7.3,7.3,0,0,0,10.381,0Zm0,11.781A4.344,4.344,0,0,1,5.952,7.363a4.344,4.344,0,0,1,4.429-4.418,4.344,4.344,0,0,1,4.429,4.418A4.344,4.344,0,0,1,10.381,11.781Z" transform="translate(-23211.514 -5976.978)"/><path class="b" d="M176.952,8.2a.154.154,0,0,0,.023,0,.572.572,0,0,0,.571-.571.562.562,0,0,0-.064-.263L177,4.958l1.5-1.5a.572.572,0,0,0-.4-.976h-1.933l-.984-1.97a.6.6,0,0,0-1.023,0l-.985,1.97h-1.933a.572.572,0,0,0-.4.976l1.5,1.5-.511,2.557a.571.571,0,0,0,.9.569l1.943-1.457,1.943,1.457A.577.577,0,0,0,176.952,8.2Z" transform="translate(-23376.127 -5990.091)"/><path class="b" d="M175.952,7.2c.008,0,1.017,1,1.023,1a.572.572,0,0,0,.571-.571.562.562,0,0,0-.064-.263L177,4.958l1.5-1.5a.572.572,0,0,0-.4-.976h-1.933l-.984-1.97a.6.6,0,0,0-1.023,0l-.985,1.97h-1.933a.572.572,0,0,0-.4.976l1.5,1.5-.511,2.557a.571.571,0,0,0,.9.569l1.943-1.457,1.943,1.457C176.711,8.159,175.832,7.2,175.952,7.2Z" transform="translate(-23388.914 -5985.679)"/><path class="b" d="M176.952,8.2a.155.155,0,0,0,.023,0,.572.572,0,0,0,.571-.571.562.562,0,0,0-.064-.263L177,4.958l1.5-1.5a.572.572,0,0,0-.4-.976h-1.933l-.984-1.97a.6.6,0,0,0-1.023,0l-.985,1.97h-1.933a.572.572,0,0,0-.4.976l1.5,1.5-.511,2.557a.571.571,0,0,0,.9.569l1.943-1.457,1.943,1.457A.577.577,0,0,0,176.952,8.2Z" transform="translate(-23363.418 -5986.176)"/></g><g transform="translate(150.834 73.166)"><g transform="translate(0 0)"><path class="b" d="M58.594,358.592l-.367,1.832c9.2,1.482,11.787,3.707,11.742,5.307,0,1.888-7.207,5.344-17.885,5.344s-17.56-2.918-17.435-5.344c0,0-1.7-2.558,10.238-5.307v-1.832c-10.832,2.654-12.8,4.519-12.887,7.138-.141,4.75,10.1,7.24,20.083,7.24s20.083-2.485,20.083-7.24C72.167,362.272,65.35,359.536,58.594,358.592Z" transform="translate(-32 -359.136)"/></g></g><ellipse class="b" cx="3.5" cy="1" rx="3.5" ry="1" transform="translate(167.5 78)"/></g></svg>