<svg xmlns="http://www.w3.org/2000/svg" width="50" height="55" viewBox="0 0 50 55"><defs><style>.a{fill:#f8f8f8;}.b{fill:#00b8e3;}</style></defs><g transform="translate(-32 -34)"><rect class="a" width="50" height="55" transform="translate(32 34)"/><g transform="translate(36 10)"><g transform="translate(13.85 41.716)"><g transform="translate(0 0)"><path class="b" d="M173.991,172.306s-.681-6.734-1.993-9.811-2.051-2.5-3.252-2.5h-3.488s-1.741-.494-3.013,1.873a4.666,4.666,0,0,0-.239.588,71.177,71.177,0,0,0-1.995,9.85,1.565,1.565,0,0,0,.282,1.09,1.094,1.094,0,0,0,.875.472h1.307l.926,8.6a2.525,2.525,0,0,0,2.324,2.5h2.555a2.511,2.511,0,0,0,2.319-2.461l.929-8.638h1.307a1.094,1.094,0,0,0,.875-.472A1.545,1.545,0,0,0,173.991,172.306Z" transform="translate(-160.001 -159.954)"/></g></g><g transform="translate(16.5 32.231)"><g transform="translate(0 -1)"><ellipse class="b" cx="4.241" cy="4.383" rx="4.241" ry="4.383"/></g></g><g transform="translate(1.002 60.166)"><g transform="translate(0 0)"><path class="b" d="M58.594,358.592l-.367,1.832c9.2,1.482,11.787,3.707,11.742,5.307,0,1.888-7.207,5.344-17.885,5.344s-17.56-2.918-17.435-5.344c0,0-1.7-2.558,10.238-5.307v-1.832c-10.832,2.654-12.8,4.519-12.887,7.138-.141,4.75,10.1,7.24,20.083,7.24s20.083-2.485,20.083-7.24C72.167,362.272,65.35,359.536,58.594,358.592Z" transform="translate(-32 -359.136)"/></g></g></g></g></svg>